G04 #@! TF.FileFunction,Other,User*
%FSLAX46Y46*%
G04 Gerber Fmt 4.6, Leading zero omitted, Abs format (unit mm)*
G04 Created by KiCad (PCBNEW 4.0.6) date 04/30/18 18:34:22*
%MOMM*%
%LPD*%
G01*
G04 APERTURE LIST*
%ADD10C,0.100000*%
%ADD11C,0.050000*%
G04 APERTURE END LIST*
D10*
D11*
X-20976500Y-2061700D02*
X-14476500Y-2061700D01*
X-20976500Y-2061700D02*
X-20976500Y-4271700D01*
X-14476500Y-4271700D02*
X-14476500Y-2061700D01*
X-14476500Y-4271700D02*
X-20976500Y-4271700D01*
X-9406400Y19978500D02*
X-2906400Y19978500D01*
X-9406400Y19978500D02*
X-9406400Y17768500D01*
X-2906400Y17768500D02*
X-2906400Y19978500D01*
X-2906400Y17768500D02*
X-9406400Y17768500D01*
X-20976500Y4189700D02*
X-14476500Y4189700D01*
X-20976500Y4189700D02*
X-20976500Y1979700D01*
X-14476500Y1979700D02*
X-14476500Y4189700D01*
X-14476500Y1979700D02*
X-20976500Y1979700D01*
X-9406400Y-17850500D02*
X-2906400Y-17850500D01*
X-9406400Y-17850500D02*
X-9406400Y-20060500D01*
X-2906400Y-20060500D02*
X-2906400Y-17850500D01*
X-2906400Y-20060500D02*
X-9406400Y-20060500D01*
X-14820200Y14852800D02*
X-8320200Y14852800D01*
X-14820200Y14852800D02*
X-14820200Y12642800D01*
X-8320200Y12642800D02*
X-8320200Y14852800D01*
X-8320200Y12642800D02*
X-14820200Y12642800D01*
X-18838500Y10064000D02*
X-12338500Y10064000D01*
X-18838500Y10064000D02*
X-18838500Y7854000D01*
X-12338500Y7854000D02*
X-12338500Y10064000D01*
X-12338500Y7854000D02*
X-18838500Y7854000D01*
X-18838500Y-7936000D02*
X-12338500Y-7936000D01*
X-18838500Y-7936000D02*
X-18838500Y-10146000D01*
X-12338500Y-10146000D02*
X-12338500Y-7936000D01*
X-12338500Y-10146000D02*
X-18838500Y-10146000D01*
X-14820200Y-12724800D02*
X-8320200Y-12724800D01*
X-14820200Y-12724800D02*
X-14820200Y-14934800D01*
X-8320200Y-14934800D02*
X-8320200Y-12724800D01*
X-8320200Y-14934800D02*
X-14820200Y-14934800D01*
M02*
