G04 #@! TF.FileFunction,Copper,L2,Bot,Signal*
%FSLAX46Y46*%
G04 Gerber Fmt 4.6, Leading zero omitted, Abs format (unit mm)*
G04 Created by KiCad (PCBNEW 4.0.6) date 04/30/18 18:34:21*
%MOMM*%
%LPD*%
G01*
G04 APERTURE LIST*
%ADD10C,0.100000*%
%ADD11C,0.010000*%
%ADD12R,9.000000X9.000000*%
%ADD13R,5.100000X3.000000*%
%ADD14C,1.600000*%
%ADD15O,1.600000X1.600000*%
%ADD16R,0.800000X1.300000*%
%ADD17R,1.100000X1.800000*%
%ADD18R,2.000000X1.700000*%
%ADD19C,0.600000*%
%ADD20C,0.300000*%
G04 APERTURE END LIST*
D10*
D11*
G36*
X7696919Y-9051720D02*
X7570139Y-9224687D01*
X7464505Y-9311092D01*
X7451911Y-9313334D01*
X7404916Y-9390491D01*
X7373967Y-9592322D01*
X7366000Y-9800726D01*
X7350755Y-10132308D01*
X7311787Y-10444612D01*
X7281509Y-10582720D01*
X7224939Y-10810429D01*
X7157375Y-11127838D01*
X7085340Y-11497878D01*
X7015354Y-11883481D01*
X6953941Y-12247576D01*
X6907622Y-12553096D01*
X6882918Y-12762970D01*
X6884476Y-12839365D01*
X6931474Y-12786414D01*
X7019949Y-12612003D01*
X7131332Y-12353000D01*
X7138772Y-12334492D01*
X7247322Y-12037866D01*
X7382340Y-11631248D01*
X7526606Y-11168248D01*
X7662612Y-10703508D01*
X7794619Y-10216583D01*
X7878550Y-9853387D01*
X7920522Y-9577221D01*
X7926649Y-9351384D01*
X7912719Y-9202383D01*
X7856016Y-8790106D01*
X7696919Y-9051720D01*
X7696919Y-9051720D01*
G37*
X7696919Y-9051720D02*
X7570139Y-9224687D01*
X7464505Y-9311092D01*
X7451911Y-9313334D01*
X7404916Y-9390491D01*
X7373967Y-9592322D01*
X7366000Y-9800726D01*
X7350755Y-10132308D01*
X7311787Y-10444612D01*
X7281509Y-10582720D01*
X7224939Y-10810429D01*
X7157375Y-11127838D01*
X7085340Y-11497878D01*
X7015354Y-11883481D01*
X6953941Y-12247576D01*
X6907622Y-12553096D01*
X6882918Y-12762970D01*
X6884476Y-12839365D01*
X6931474Y-12786414D01*
X7019949Y-12612003D01*
X7131332Y-12353000D01*
X7138772Y-12334492D01*
X7247322Y-12037866D01*
X7382340Y-11631248D01*
X7526606Y-11168248D01*
X7662612Y-10703508D01*
X7794619Y-10216583D01*
X7878550Y-9853387D01*
X7920522Y-9577221D01*
X7926649Y-9351384D01*
X7912719Y-9202383D01*
X7856016Y-8790106D01*
X7696919Y-9051720D01*
G36*
X8290448Y-9017000D02*
X8243643Y-9526491D01*
X8223350Y-10002673D01*
X8228999Y-10412887D01*
X8260020Y-10724472D01*
X8315843Y-10904767D01*
X8323598Y-10915333D01*
X8407984Y-11067123D01*
X8509913Y-11319304D01*
X8581015Y-11532949D01*
X8671309Y-11799397D01*
X8755208Y-11994020D01*
X8803309Y-12063749D01*
X8831545Y-12026653D01*
X8804363Y-11875259D01*
X8792025Y-11833800D01*
X8756757Y-11651579D01*
X8718911Y-11338505D01*
X8682250Y-10932940D01*
X8650536Y-10473247D01*
X8640293Y-10287000D01*
X8607890Y-9784426D01*
X8566500Y-9344874D01*
X8519989Y-9001533D01*
X8472224Y-8787588D01*
X8462751Y-8763000D01*
X8349850Y-8509000D01*
X8290448Y-9017000D01*
X8290448Y-9017000D01*
G37*
X8290448Y-9017000D02*
X8243643Y-9526491D01*
X8223350Y-10002673D01*
X8228999Y-10412887D01*
X8260020Y-10724472D01*
X8315843Y-10904767D01*
X8323598Y-10915333D01*
X8407984Y-11067123D01*
X8509913Y-11319304D01*
X8581015Y-11532949D01*
X8671309Y-11799397D01*
X8755208Y-11994020D01*
X8803309Y-12063749D01*
X8831545Y-12026653D01*
X8804363Y-11875259D01*
X8792025Y-11833800D01*
X8756757Y-11651579D01*
X8718911Y-11338505D01*
X8682250Y-10932940D01*
X8650536Y-10473247D01*
X8640293Y-10287000D01*
X8607890Y-9784426D01*
X8566500Y-9344874D01*
X8519989Y-9001533D01*
X8472224Y-8787588D01*
X8462751Y-8763000D01*
X8349850Y-8509000D01*
X8290448Y-9017000D01*
G36*
X4882649Y-10124088D02*
X4759818Y-10145960D01*
X4772618Y-10187197D01*
X4797485Y-10202334D01*
X4954067Y-10315714D01*
X5153036Y-10493115D01*
X5207377Y-10546875D01*
X5447359Y-10742330D01*
X5711622Y-10891497D01*
X5758122Y-10909588D01*
X5984443Y-11027110D01*
X6252530Y-11219923D01*
X6422702Y-11369380D01*
X6792277Y-11726334D01*
X6635597Y-11430000D01*
X6533670Y-11208044D01*
X6480062Y-11034496D01*
X6477725Y-11010090D01*
X6402694Y-10907268D01*
X6221161Y-10834284D01*
X6220995Y-10834250D01*
X5962439Y-10753309D01*
X5742379Y-10636807D01*
X5598789Y-10511543D01*
X5569642Y-10404314D01*
X5583653Y-10384481D01*
X5670654Y-10253776D01*
X5614569Y-10169503D01*
X5406869Y-10126318D01*
X5157763Y-10117667D01*
X4882649Y-10124088D01*
X4882649Y-10124088D01*
G37*
X4882649Y-10124088D02*
X4759818Y-10145960D01*
X4772618Y-10187197D01*
X4797485Y-10202334D01*
X4954067Y-10315714D01*
X5153036Y-10493115D01*
X5207377Y-10546875D01*
X5447359Y-10742330D01*
X5711622Y-10891497D01*
X5758122Y-10909588D01*
X5984443Y-11027110D01*
X6252530Y-11219923D01*
X6422702Y-11369380D01*
X6792277Y-11726334D01*
X6635597Y-11430000D01*
X6533670Y-11208044D01*
X6480062Y-11034496D01*
X6477725Y-11010090D01*
X6402694Y-10907268D01*
X6221161Y-10834284D01*
X6220995Y-10834250D01*
X5962439Y-10753309D01*
X5742379Y-10636807D01*
X5598789Y-10511543D01*
X5569642Y-10404314D01*
X5583653Y-10384481D01*
X5670654Y-10253776D01*
X5614569Y-10169503D01*
X5406869Y-10126318D01*
X5157763Y-10117667D01*
X4882649Y-10124088D01*
G36*
X8744846Y-8927214D02*
X8766262Y-9136295D01*
X8807937Y-9408478D01*
X8861040Y-9695072D01*
X8916739Y-9947386D01*
X8966203Y-10116730D01*
X8993754Y-10160000D01*
X9051269Y-10089781D01*
X9063152Y-10011834D01*
X9089676Y-9966958D01*
X9156515Y-10075126D01*
X9174075Y-10114791D01*
X9252060Y-10272335D01*
X9303475Y-10285474D01*
X9339514Y-10213897D01*
X9365337Y-10017093D01*
X9345282Y-9835772D01*
X9284078Y-9670968D01*
X9173796Y-9447872D01*
X9039830Y-9209575D01*
X8907574Y-8999166D01*
X8802421Y-8859737D01*
X8752519Y-8829926D01*
X8744846Y-8927214D01*
X8744846Y-8927214D01*
G37*
X8744846Y-8927214D02*
X8766262Y-9136295D01*
X8807937Y-9408478D01*
X8861040Y-9695072D01*
X8916739Y-9947386D01*
X8966203Y-10116730D01*
X8993754Y-10160000D01*
X9051269Y-10089781D01*
X9063152Y-10011834D01*
X9089676Y-9966958D01*
X9156515Y-10075126D01*
X9174075Y-10114791D01*
X9252060Y-10272335D01*
X9303475Y-10285474D01*
X9339514Y-10213897D01*
X9365337Y-10017093D01*
X9345282Y-9835772D01*
X9284078Y-9670968D01*
X9173796Y-9447872D01*
X9039830Y-9209575D01*
X8907574Y-8999166D01*
X8802421Y-8859737D01*
X8752519Y-8829926D01*
X8744846Y-8927214D01*
G36*
X5070773Y-7367153D02*
X4717238Y-7396253D01*
X4400158Y-7437746D01*
X4160408Y-7489744D01*
X4127812Y-7500358D01*
X3830889Y-7579238D01*
X3537979Y-7618892D01*
X3494925Y-7620000D01*
X3194901Y-7674320D01*
X2933291Y-7815087D01*
X2757140Y-8009013D01*
X2709333Y-8175855D01*
X2766293Y-8362250D01*
X2913393Y-8597757D01*
X3005667Y-8709518D01*
X3210369Y-8980839D01*
X3295320Y-9227493D01*
X3302000Y-9331640D01*
X3355357Y-9621495D01*
X3525280Y-9816571D01*
X3826545Y-9928124D01*
X4130673Y-9962922D01*
X4428977Y-9963617D01*
X4678836Y-9938759D01*
X4783667Y-9910546D01*
X4861941Y-9861338D01*
X4804443Y-9836210D01*
X4614333Y-9826968D01*
X4309763Y-9777091D01*
X4019494Y-9663840D01*
X3995280Y-9649753D01*
X3808297Y-9510697D01*
X3739401Y-9363312D01*
X3741280Y-9205570D01*
X3749991Y-9103734D01*
X3769120Y-9028360D01*
X3822179Y-8972356D01*
X3932682Y-8928634D01*
X4124142Y-8890101D01*
X4420073Y-8849667D01*
X4843989Y-8800241D01*
X5231052Y-8756316D01*
X5533032Y-8707694D01*
X5702861Y-8648547D01*
X5730993Y-8602321D01*
X5634181Y-8546321D01*
X5439770Y-8532577D01*
X5410608Y-8534689D01*
X5101216Y-8555124D01*
X4730996Y-8568888D01*
X4335999Y-8576044D01*
X3952278Y-8576650D01*
X3615884Y-8570768D01*
X3362869Y-8558459D01*
X3229283Y-8539782D01*
X3217333Y-8531004D01*
X3294727Y-8497418D01*
X3497821Y-8470777D01*
X3782988Y-8456755D01*
X3788833Y-8456650D01*
X4126482Y-8442788D01*
X4432226Y-8416758D01*
X4614333Y-8389050D01*
X4724691Y-8356120D01*
X4711804Y-8328583D01*
X4559521Y-8300013D01*
X4318000Y-8271163D01*
X3989249Y-8229278D01*
X3695220Y-8181847D01*
X3531088Y-8146831D01*
X3424579Y-8110652D01*
X3407749Y-8070151D01*
X3499774Y-8009685D01*
X3719833Y-7913613D01*
X3912088Y-7836052D01*
X4399404Y-7672542D01*
X4900944Y-7576944D01*
X5291667Y-7541151D01*
X5623965Y-7511782D01*
X5877789Y-7473312D01*
X6016821Y-7432056D01*
X6031960Y-7412429D01*
X5941356Y-7373084D01*
X5723707Y-7353681D01*
X5419887Y-7352333D01*
X5070773Y-7367153D01*
X5070773Y-7367153D01*
G37*
X5070773Y-7367153D02*
X4717238Y-7396253D01*
X4400158Y-7437746D01*
X4160408Y-7489744D01*
X4127812Y-7500358D01*
X3830889Y-7579238D01*
X3537979Y-7618892D01*
X3494925Y-7620000D01*
X3194901Y-7674320D01*
X2933291Y-7815087D01*
X2757140Y-8009013D01*
X2709333Y-8175855D01*
X2766293Y-8362250D01*
X2913393Y-8597757D01*
X3005667Y-8709518D01*
X3210369Y-8980839D01*
X3295320Y-9227493D01*
X3302000Y-9331640D01*
X3355357Y-9621495D01*
X3525280Y-9816571D01*
X3826545Y-9928124D01*
X4130673Y-9962922D01*
X4428977Y-9963617D01*
X4678836Y-9938759D01*
X4783667Y-9910546D01*
X4861941Y-9861338D01*
X4804443Y-9836210D01*
X4614333Y-9826968D01*
X4309763Y-9777091D01*
X4019494Y-9663840D01*
X3995280Y-9649753D01*
X3808297Y-9510697D01*
X3739401Y-9363312D01*
X3741280Y-9205570D01*
X3749991Y-9103734D01*
X3769120Y-9028360D01*
X3822179Y-8972356D01*
X3932682Y-8928634D01*
X4124142Y-8890101D01*
X4420073Y-8849667D01*
X4843989Y-8800241D01*
X5231052Y-8756316D01*
X5533032Y-8707694D01*
X5702861Y-8648547D01*
X5730993Y-8602321D01*
X5634181Y-8546321D01*
X5439770Y-8532577D01*
X5410608Y-8534689D01*
X5101216Y-8555124D01*
X4730996Y-8568888D01*
X4335999Y-8576044D01*
X3952278Y-8576650D01*
X3615884Y-8570768D01*
X3362869Y-8558459D01*
X3229283Y-8539782D01*
X3217333Y-8531004D01*
X3294727Y-8497418D01*
X3497821Y-8470777D01*
X3782988Y-8456755D01*
X3788833Y-8456650D01*
X4126482Y-8442788D01*
X4432226Y-8416758D01*
X4614333Y-8389050D01*
X4724691Y-8356120D01*
X4711804Y-8328583D01*
X4559521Y-8300013D01*
X4318000Y-8271163D01*
X3989249Y-8229278D01*
X3695220Y-8181847D01*
X3531088Y-8146831D01*
X3424579Y-8110652D01*
X3407749Y-8070151D01*
X3499774Y-8009685D01*
X3719833Y-7913613D01*
X3912088Y-7836052D01*
X4399404Y-7672542D01*
X4900944Y-7576944D01*
X5291667Y-7541151D01*
X5623965Y-7511782D01*
X5877789Y-7473312D01*
X6016821Y-7432056D01*
X6031960Y-7412429D01*
X5941356Y-7373084D01*
X5723707Y-7353681D01*
X5419887Y-7352333D01*
X5070773Y-7367153D01*
G36*
X6959427Y-9463220D02*
X6897211Y-9567334D01*
X6810168Y-9742151D01*
X6776334Y-9842500D01*
X6829727Y-9905070D01*
X6949266Y-9891400D01*
X7058971Y-9817307D01*
X7081382Y-9779000D01*
X7094607Y-9593687D01*
X7072603Y-9503834D01*
X7021647Y-9417449D01*
X6959427Y-9463220D01*
X6959427Y-9463220D01*
G37*
X6959427Y-9463220D02*
X6897211Y-9567334D01*
X6810168Y-9742151D01*
X6776334Y-9842500D01*
X6829727Y-9905070D01*
X6949266Y-9891400D01*
X7058971Y-9817307D01*
X7081382Y-9779000D01*
X7094607Y-9593687D01*
X7072603Y-9503834D01*
X7021647Y-9417449D01*
X6959427Y-9463220D01*
G36*
X7309556Y-9002889D02*
X7299423Y-9103369D01*
X7309556Y-9115778D01*
X7359890Y-9104156D01*
X7366000Y-9059334D01*
X7335022Y-8989643D01*
X7309556Y-9002889D01*
X7309556Y-9002889D01*
G37*
X7309556Y-9002889D02*
X7299423Y-9103369D01*
X7309556Y-9115778D01*
X7359890Y-9104156D01*
X7366000Y-9059334D01*
X7335022Y-8989643D01*
X7309556Y-9002889D01*
G36*
X7126110Y-8100087D02*
X7000376Y-8198222D01*
X6713757Y-8354280D01*
X6492710Y-8382000D01*
X6263006Y-8401965D01*
X6196615Y-8459648D01*
X6292564Y-8551731D01*
X6549881Y-8674899D01*
X6582437Y-8687998D01*
X6828225Y-8786038D01*
X7009743Y-8859099D01*
X7061595Y-8880386D01*
X7102452Y-8846844D01*
X7086329Y-8775890D01*
X7089650Y-8612650D01*
X7169235Y-8402822D01*
X7177081Y-8388803D01*
X7265122Y-8178176D01*
X7242716Y-8076096D01*
X7126110Y-8100087D01*
X7126110Y-8100087D01*
G37*
X7126110Y-8100087D02*
X7000376Y-8198222D01*
X6713757Y-8354280D01*
X6492710Y-8382000D01*
X6263006Y-8401965D01*
X6196615Y-8459648D01*
X6292564Y-8551731D01*
X6549881Y-8674899D01*
X6582437Y-8687998D01*
X6828225Y-8786038D01*
X7009743Y-8859099D01*
X7061595Y-8880386D01*
X7102452Y-8846844D01*
X7086329Y-8775890D01*
X7089650Y-8612650D01*
X7169235Y-8402822D01*
X7177081Y-8388803D01*
X7265122Y-8178176D01*
X7242716Y-8076096D01*
X7126110Y-8100087D01*
G36*
X7052382Y-5215156D02*
X7115910Y-5445522D01*
X7209537Y-5763097D01*
X7291716Y-6031522D01*
X7533227Y-7035096D01*
X7613542Y-7695756D01*
X7670986Y-8509000D01*
X7824019Y-8149167D01*
X7941693Y-7903453D01*
X8037678Y-7807983D01*
X8140624Y-7851327D01*
X8248410Y-7979834D01*
X8389474Y-8170334D01*
X8337027Y-7916334D01*
X8254283Y-7621485D01*
X8113491Y-7224433D01*
X7934738Y-6773204D01*
X7738111Y-6315823D01*
X7543698Y-5900315D01*
X7371587Y-5574706D01*
X7326680Y-5500752D01*
X7177530Y-5276922D01*
X7070719Y-5136235D01*
X7029501Y-5109100D01*
X7052382Y-5215156D01*
X7052382Y-5215156D01*
G37*
X7052382Y-5215156D02*
X7115910Y-5445522D01*
X7209537Y-5763097D01*
X7291716Y-6031522D01*
X7533227Y-7035096D01*
X7613542Y-7695756D01*
X7670986Y-8509000D01*
X7824019Y-8149167D01*
X7941693Y-7903453D01*
X8037678Y-7807983D01*
X8140624Y-7851327D01*
X8248410Y-7979834D01*
X8389474Y-8170334D01*
X8337027Y-7916334D01*
X8254283Y-7621485D01*
X8113491Y-7224433D01*
X7934738Y-6773204D01*
X7738111Y-6315823D01*
X7543698Y-5900315D01*
X7371587Y-5574706D01*
X7326680Y-5500752D01*
X7177530Y-5276922D01*
X7070719Y-5136235D01*
X7029501Y-5109100D01*
X7052382Y-5215156D01*
G36*
X4194428Y-6341335D02*
X4035093Y-6426369D01*
X3804068Y-6543286D01*
X3483767Y-6673855D01*
X3184510Y-6776553D01*
X2788324Y-6930737D01*
X2551564Y-7105159D01*
X2464534Y-7311590D01*
X2517536Y-7561800D01*
X2524595Y-7577667D01*
X2620462Y-7740722D01*
X2732734Y-7769648D01*
X2919724Y-7679281D01*
X2921000Y-7678521D01*
X3066557Y-7592085D01*
X3123565Y-7558546D01*
X3105923Y-7488659D01*
X3052776Y-7414088D01*
X2994190Y-7256243D01*
X3062466Y-7137694D01*
X3160084Y-7112000D01*
X3319614Y-7067175D01*
X3559164Y-6953444D01*
X3822117Y-6801921D01*
X4051857Y-6643723D01*
X4127500Y-6580324D01*
X4284385Y-6409220D01*
X4303938Y-6324967D01*
X4194428Y-6341335D01*
X4194428Y-6341335D01*
G37*
X4194428Y-6341335D02*
X4035093Y-6426369D01*
X3804068Y-6543286D01*
X3483767Y-6673855D01*
X3184510Y-6776553D01*
X2788324Y-6930737D01*
X2551564Y-7105159D01*
X2464534Y-7311590D01*
X2517536Y-7561800D01*
X2524595Y-7577667D01*
X2620462Y-7740722D01*
X2732734Y-7769648D01*
X2919724Y-7679281D01*
X2921000Y-7678521D01*
X3066557Y-7592085D01*
X3123565Y-7558546D01*
X3105923Y-7488659D01*
X3052776Y-7414088D01*
X2994190Y-7256243D01*
X3062466Y-7137694D01*
X3160084Y-7112000D01*
X3319614Y-7067175D01*
X3559164Y-6953444D01*
X3822117Y-6801921D01*
X4051857Y-6643723D01*
X4127500Y-6580324D01*
X4284385Y-6409220D01*
X4303938Y-6324967D01*
X4194428Y-6341335D01*
G36*
X6371490Y-6777641D02*
X6348329Y-6865078D01*
X6345380Y-7012702D01*
X6444859Y-7126965D01*
X6597591Y-7214982D01*
X6792962Y-7315411D01*
X6889719Y-7352729D01*
X6943541Y-7333603D01*
X7010104Y-7264697D01*
X7010400Y-7264400D01*
X7109982Y-7098988D01*
X7053364Y-6983130D01*
X6868367Y-6942667D01*
X6649642Y-6896886D01*
X6510007Y-6804429D01*
X6420472Y-6719876D01*
X6371490Y-6777641D01*
X6371490Y-6777641D01*
G37*
X6371490Y-6777641D02*
X6348329Y-6865078D01*
X6345380Y-7012702D01*
X6444859Y-7126965D01*
X6597591Y-7214982D01*
X6792962Y-7315411D01*
X6889719Y-7352729D01*
X6943541Y-7333603D01*
X7010104Y-7264697D01*
X7010400Y-7264400D01*
X7109982Y-7098988D01*
X7053364Y-6983130D01*
X6868367Y-6942667D01*
X6649642Y-6896886D01*
X6510007Y-6804429D01*
X6420472Y-6719876D01*
X6371490Y-6777641D01*
G36*
X-1469596Y-5967429D02*
X-1675701Y-6023632D01*
X-1958181Y-6113366D01*
X-2008869Y-6130466D01*
X-2389761Y-6251904D01*
X-2787796Y-6366144D01*
X-3081495Y-6440090D01*
X-3394070Y-6525770D01*
X-3541545Y-6605416D01*
X-3522322Y-6677853D01*
X-3450167Y-6710840D01*
X-3435033Y-6784457D01*
X-3551086Y-6937645D01*
X-3628454Y-7014229D01*
X-3774385Y-7164410D01*
X-3811972Y-7249243D01*
X-3728058Y-7272147D01*
X-3509482Y-7236544D01*
X-3143088Y-7145853D01*
X-3132667Y-7143106D01*
X-2639491Y-7012332D01*
X-2282511Y-6912017D01*
X-2034369Y-6828765D01*
X-1867704Y-6749183D01*
X-1755157Y-6659877D01*
X-1669368Y-6547451D01*
X-1582976Y-6398513D01*
X-1572162Y-6379147D01*
X-1454679Y-6155025D01*
X-1387651Y-5999313D01*
X-1381471Y-5956307D01*
X-1469596Y-5967429D01*
X-1469596Y-5967429D01*
G37*
X-1469596Y-5967429D02*
X-1675701Y-6023632D01*
X-1958181Y-6113366D01*
X-2008869Y-6130466D01*
X-2389761Y-6251904D01*
X-2787796Y-6366144D01*
X-3081495Y-6440090D01*
X-3394070Y-6525770D01*
X-3541545Y-6605416D01*
X-3522322Y-6677853D01*
X-3450167Y-6710840D01*
X-3435033Y-6784457D01*
X-3551086Y-6937645D01*
X-3628454Y-7014229D01*
X-3774385Y-7164410D01*
X-3811972Y-7249243D01*
X-3728058Y-7272147D01*
X-3509482Y-7236544D01*
X-3143088Y-7145853D01*
X-3132667Y-7143106D01*
X-2639491Y-7012332D01*
X-2282511Y-6912017D01*
X-2034369Y-6828765D01*
X-1867704Y-6749183D01*
X-1755157Y-6659877D01*
X-1669368Y-6547451D01*
X-1582976Y-6398513D01*
X-1572162Y-6379147D01*
X-1454679Y-6155025D01*
X-1387651Y-5999313D01*
X-1381471Y-5956307D01*
X-1469596Y-5967429D01*
G36*
X8043333Y-5832552D02*
X8105364Y-5944365D01*
X8266123Y-6121068D01*
X8487612Y-6327653D01*
X8731835Y-6529111D01*
X8960793Y-6690434D01*
X9000109Y-6714051D01*
X9297220Y-6855007D01*
X9608224Y-6957513D01*
X9694333Y-6975516D01*
X10033000Y-7031186D01*
X9821333Y-6845871D01*
X9697168Y-6728987D01*
X9700965Y-6700513D01*
X9779000Y-6725597D01*
X10003947Y-6781857D01*
X10307927Y-6821108D01*
X10632510Y-6840288D01*
X10919263Y-6836336D01*
X11109753Y-6806187D01*
X11131612Y-6796492D01*
X11164745Y-6750299D01*
X11083922Y-6701800D01*
X10871435Y-6644738D01*
X10509576Y-6572855D01*
X10486985Y-6568712D01*
X10036371Y-6467320D01*
X9520154Y-6322278D01*
X9027190Y-6159334D01*
X8868833Y-6099802D01*
X8530374Y-5971989D01*
X8259107Y-5879097D01*
X8087380Y-5831598D01*
X8043333Y-5832552D01*
X8043333Y-5832552D01*
G37*
X8043333Y-5832552D02*
X8105364Y-5944365D01*
X8266123Y-6121068D01*
X8487612Y-6327653D01*
X8731835Y-6529111D01*
X8960793Y-6690434D01*
X9000109Y-6714051D01*
X9297220Y-6855007D01*
X9608224Y-6957513D01*
X9694333Y-6975516D01*
X10033000Y-7031186D01*
X9821333Y-6845871D01*
X9697168Y-6728987D01*
X9700965Y-6700513D01*
X9779000Y-6725597D01*
X10003947Y-6781857D01*
X10307927Y-6821108D01*
X10632510Y-6840288D01*
X10919263Y-6836336D01*
X11109753Y-6806187D01*
X11131612Y-6796492D01*
X11164745Y-6750299D01*
X11083922Y-6701800D01*
X10871435Y-6644738D01*
X10509576Y-6572855D01*
X10486985Y-6568712D01*
X10036371Y-6467320D01*
X9520154Y-6322278D01*
X9027190Y-6159334D01*
X8868833Y-6099802D01*
X8530374Y-5971989D01*
X8259107Y-5879097D01*
X8087380Y-5831598D01*
X8043333Y-5832552D01*
G36*
X5279636Y-5434193D02*
X5241617Y-5467234D01*
X5030932Y-5746928D01*
X4962014Y-6049868D01*
X5030152Y-6337040D01*
X5230636Y-6569431D01*
X5385072Y-6655441D01*
X5704077Y-6756488D01*
X5952588Y-6744316D01*
X6189705Y-6614698D01*
X6213714Y-6596178D01*
X6387277Y-6416353D01*
X6530449Y-6192193D01*
X6630336Y-5961380D01*
X6674044Y-5761597D01*
X6648677Y-5630528D01*
X6553584Y-5602959D01*
X6449458Y-5695277D01*
X6335648Y-5903506D01*
X6278417Y-6053667D01*
X6183281Y-6306265D01*
X6088740Y-6437859D01*
X5955836Y-6492094D01*
X5877821Y-6502438D01*
X5565877Y-6452869D01*
X5412155Y-6359786D01*
X5305405Y-6269043D01*
X5259836Y-6190821D01*
X5282068Y-6083971D01*
X5378723Y-5907347D01*
X5522380Y-5674780D01*
X5583323Y-5517797D01*
X5524381Y-5405847D01*
X5418229Y-5357270D01*
X5279636Y-5434193D01*
X5279636Y-5434193D01*
G37*
X5279636Y-5434193D02*
X5241617Y-5467234D01*
X5030932Y-5746928D01*
X4962014Y-6049868D01*
X5030152Y-6337040D01*
X5230636Y-6569431D01*
X5385072Y-6655441D01*
X5704077Y-6756488D01*
X5952588Y-6744316D01*
X6189705Y-6614698D01*
X6213714Y-6596178D01*
X6387277Y-6416353D01*
X6530449Y-6192193D01*
X6630336Y-5961380D01*
X6674044Y-5761597D01*
X6648677Y-5630528D01*
X6553584Y-5602959D01*
X6449458Y-5695277D01*
X6335648Y-5903506D01*
X6278417Y-6053667D01*
X6183281Y-6306265D01*
X6088740Y-6437859D01*
X5955836Y-6492094D01*
X5877821Y-6502438D01*
X5565877Y-6452869D01*
X5412155Y-6359786D01*
X5305405Y-6269043D01*
X5259836Y-6190821D01*
X5282068Y-6083971D01*
X5378723Y-5907347D01*
X5522380Y-5674780D01*
X5583323Y-5517797D01*
X5524381Y-5405847D01*
X5418229Y-5357270D01*
X5279636Y-5434193D01*
G36*
X6108584Y-4511385D02*
X6006388Y-4515101D01*
X5756570Y-4530259D01*
X5550125Y-4565443D01*
X5345176Y-4636871D01*
X5099846Y-4760765D01*
X4772258Y-4953343D01*
X4594855Y-5061813D01*
X4204968Y-5295499D01*
X3917983Y-5449356D01*
X3696901Y-5538954D01*
X3504719Y-5579864D01*
X3344454Y-5588000D01*
X3056303Y-5612194D01*
X2850886Y-5705183D01*
X2718975Y-5820834D01*
X2567845Y-6005846D01*
X2514421Y-6197022D01*
X2522714Y-6413500D01*
X2563810Y-6631168D01*
X2622777Y-6757033D01*
X2678089Y-6769428D01*
X2708220Y-6646687D01*
X2709333Y-6601343D01*
X2761083Y-6439953D01*
X2828693Y-6383550D01*
X2941935Y-6272027D01*
X2996630Y-6144196D01*
X3050285Y-6028549D01*
X3167616Y-5959348D01*
X3392899Y-5916017D01*
X3518087Y-5901840D01*
X3856619Y-5840912D01*
X4184997Y-5740945D01*
X4318471Y-5682329D01*
X4645976Y-5511624D01*
X4672488Y-5692377D01*
X4701201Y-5766665D01*
X4766592Y-5745835D01*
X4888866Y-5614291D01*
X5061345Y-5392204D01*
X5340797Y-5047541D01*
X5585697Y-4819392D01*
X5841310Y-4674929D01*
X6152903Y-4581325D01*
X6190848Y-4573081D01*
X6376764Y-4531929D01*
X6433016Y-4510441D01*
X6347618Y-4504849D01*
X6108584Y-4511385D01*
X6108584Y-4511385D01*
G37*
X6108584Y-4511385D02*
X6006388Y-4515101D01*
X5756570Y-4530259D01*
X5550125Y-4565443D01*
X5345176Y-4636871D01*
X5099846Y-4760765D01*
X4772258Y-4953343D01*
X4594855Y-5061813D01*
X4204968Y-5295499D01*
X3917983Y-5449356D01*
X3696901Y-5538954D01*
X3504719Y-5579864D01*
X3344454Y-5588000D01*
X3056303Y-5612194D01*
X2850886Y-5705183D01*
X2718975Y-5820834D01*
X2567845Y-6005846D01*
X2514421Y-6197022D01*
X2522714Y-6413500D01*
X2563810Y-6631168D01*
X2622777Y-6757033D01*
X2678089Y-6769428D01*
X2708220Y-6646687D01*
X2709333Y-6601343D01*
X2761083Y-6439953D01*
X2828693Y-6383550D01*
X2941935Y-6272027D01*
X2996630Y-6144196D01*
X3050285Y-6028549D01*
X3167616Y-5959348D01*
X3392899Y-5916017D01*
X3518087Y-5901840D01*
X3856619Y-5840912D01*
X4184997Y-5740945D01*
X4318471Y-5682329D01*
X4645976Y-5511624D01*
X4672488Y-5692377D01*
X4701201Y-5766665D01*
X4766592Y-5745835D01*
X4888866Y-5614291D01*
X5061345Y-5392204D01*
X5340797Y-5047541D01*
X5585697Y-4819392D01*
X5841310Y-4674929D01*
X6152903Y-4581325D01*
X6190848Y-4573081D01*
X6376764Y-4531929D01*
X6433016Y-4510441D01*
X6347618Y-4504849D01*
X6108584Y-4511385D01*
G36*
X-2175409Y-4517854D02*
X-2134642Y-4578911D01*
X-1964334Y-4685074D01*
X-1693413Y-4821772D01*
X-1350806Y-4974435D01*
X-965440Y-5128492D01*
X-956232Y-5131962D01*
X-629388Y-5251588D01*
X-424218Y-5313261D01*
X-305314Y-5322271D01*
X-237270Y-5283905D01*
X-208185Y-5243701D01*
X-179228Y-5164958D01*
X-223943Y-5104379D01*
X-369097Y-5049389D01*
X-641460Y-4987409D01*
X-833515Y-4949906D01*
X-1195514Y-4864018D01*
X-1546854Y-4753055D01*
X-1778334Y-4656496D01*
X-1995111Y-4558212D01*
X-2143326Y-4513843D01*
X-2175409Y-4517854D01*
X-2175409Y-4517854D01*
G37*
X-2175409Y-4517854D02*
X-2134642Y-4578911D01*
X-1964334Y-4685074D01*
X-1693413Y-4821772D01*
X-1350806Y-4974435D01*
X-965440Y-5128492D01*
X-956232Y-5131962D01*
X-629388Y-5251588D01*
X-424218Y-5313261D01*
X-305314Y-5322271D01*
X-237270Y-5283905D01*
X-208185Y-5243701D01*
X-179228Y-5164958D01*
X-223943Y-5104379D01*
X-369097Y-5049389D01*
X-641460Y-4987409D01*
X-833515Y-4949906D01*
X-1195514Y-4864018D01*
X-1546854Y-4753055D01*
X-1778334Y-4656496D01*
X-1995111Y-4558212D01*
X-2143326Y-4513843D01*
X-2175409Y-4517854D01*
G36*
X2135243Y6833066D02*
X1758007Y6768516D01*
X1355230Y6676619D01*
X983256Y6570883D01*
X698425Y6464815D01*
X615292Y6421562D01*
X236771Y6112476D01*
X-132679Y5667136D01*
X-467452Y5117812D01*
X-549940Y4953000D01*
X-632253Y4771250D01*
X-711257Y4571692D01*
X-792199Y4335367D01*
X-880327Y4043317D01*
X-980888Y3676583D01*
X-1099129Y3216205D01*
X-1240299Y2643225D01*
X-1409644Y1938683D01*
X-1562739Y1293772D01*
X-1629606Y1055701D01*
X-1745212Y691587D01*
X-1898622Y233863D01*
X-2078904Y-285042D01*
X-2275124Y-832699D01*
X-2333434Y-992228D01*
X-2609515Y-1748105D01*
X-2828866Y-2363450D01*
X-2994848Y-2856046D01*
X-3110823Y-3243673D01*
X-3180151Y-3544113D01*
X-3206192Y-3775147D01*
X-3192310Y-3954556D01*
X-3141863Y-4100122D01*
X-3058213Y-4229626D01*
X-2965815Y-4337831D01*
X-2798543Y-4497937D01*
X-2718927Y-4514378D01*
X-2711815Y-4483100D01*
X-2761181Y-4300336D01*
X-2794000Y-4250267D01*
X-2835271Y-4190680D01*
X-2777067Y-4233334D01*
X-2635622Y-4322846D01*
X-2591950Y-4295404D01*
X-2653068Y-4177014D01*
X-2735826Y-4080534D01*
X-2883527Y-3896714D01*
X-2959932Y-3743665D01*
X-2962861Y-3720701D01*
X-2904382Y-3379180D01*
X-2756458Y-3017372D01*
X-2556875Y-2726730D01*
X-2548649Y-2718182D01*
X-2363376Y-2451894D01*
X-2235498Y-2074850D01*
X-2208845Y-1951179D01*
X-2112014Y-1534527D01*
X-1972303Y-1031200D01*
X-1804104Y-484709D01*
X-1621813Y61434D01*
X-1439824Y563720D01*
X-1272530Y978637D01*
X-1162472Y1211799D01*
X-948719Y1545622D01*
X-671249Y1889080D01*
X-472212Y2091056D01*
X-42333Y2478180D01*
X54913Y1905000D01*
X119195Y2159000D01*
X176193Y2376475D01*
X217548Y2522656D01*
X348978Y2668005D01*
X639133Y2786243D01*
X1079246Y2875151D01*
X1660550Y2932512D01*
X1883833Y2944223D01*
X2878667Y2986577D01*
X2878667Y3962968D01*
X2501559Y3819821D01*
X2222212Y3706509D01*
X2093023Y3628885D01*
X2102438Y3572408D01*
X2238902Y3522544D01*
X2260807Y3516930D01*
X2497499Y3457524D01*
X2285916Y3340429D01*
X2078919Y3275731D01*
X1756696Y3232380D01*
X1439333Y3218148D01*
X663164Y3136781D01*
X238011Y3019943D01*
X-64769Y2923835D01*
X-222583Y2898695D01*
X-247270Y2951565D01*
X-150666Y3089490D01*
X-57626Y3195833D01*
X68930Y3360195D01*
X76229Y3429344D01*
X-17983Y3407583D01*
X-195959Y3299214D01*
X-439953Y3108543D01*
X-448848Y3100964D01*
X-905855Y2710530D01*
X-837357Y3143844D01*
X-682363Y3850567D01*
X-457539Y4489843D01*
X-175606Y5038706D01*
X150714Y5474190D01*
X508699Y5773328D01*
X662467Y5851560D01*
X955851Y5980730D01*
X1228914Y6113294D01*
X1312333Y6157940D01*
X1518647Y6269353D01*
X1811813Y6422402D01*
X2116667Y6578024D01*
X2387874Y6719681D01*
X2519622Y6804605D01*
X2526698Y6845928D01*
X2430597Y6856762D01*
X2135243Y6833066D01*
X2135243Y6833066D01*
G37*
X2135243Y6833066D02*
X1758007Y6768516D01*
X1355230Y6676619D01*
X983256Y6570883D01*
X698425Y6464815D01*
X615292Y6421562D01*
X236771Y6112476D01*
X-132679Y5667136D01*
X-467452Y5117812D01*
X-549940Y4953000D01*
X-632253Y4771250D01*
X-711257Y4571692D01*
X-792199Y4335367D01*
X-880327Y4043317D01*
X-980888Y3676583D01*
X-1099129Y3216205D01*
X-1240299Y2643225D01*
X-1409644Y1938683D01*
X-1562739Y1293772D01*
X-1629606Y1055701D01*
X-1745212Y691587D01*
X-1898622Y233863D01*
X-2078904Y-285042D01*
X-2275124Y-832699D01*
X-2333434Y-992228D01*
X-2609515Y-1748105D01*
X-2828866Y-2363450D01*
X-2994848Y-2856046D01*
X-3110823Y-3243673D01*
X-3180151Y-3544113D01*
X-3206192Y-3775147D01*
X-3192310Y-3954556D01*
X-3141863Y-4100122D01*
X-3058213Y-4229626D01*
X-2965815Y-4337831D01*
X-2798543Y-4497937D01*
X-2718927Y-4514378D01*
X-2711815Y-4483100D01*
X-2761181Y-4300336D01*
X-2794000Y-4250267D01*
X-2835271Y-4190680D01*
X-2777067Y-4233334D01*
X-2635622Y-4322846D01*
X-2591950Y-4295404D01*
X-2653068Y-4177014D01*
X-2735826Y-4080534D01*
X-2883527Y-3896714D01*
X-2959932Y-3743665D01*
X-2962861Y-3720701D01*
X-2904382Y-3379180D01*
X-2756458Y-3017372D01*
X-2556875Y-2726730D01*
X-2548649Y-2718182D01*
X-2363376Y-2451894D01*
X-2235498Y-2074850D01*
X-2208845Y-1951179D01*
X-2112014Y-1534527D01*
X-1972303Y-1031200D01*
X-1804104Y-484709D01*
X-1621813Y61434D01*
X-1439824Y563720D01*
X-1272530Y978637D01*
X-1162472Y1211799D01*
X-948719Y1545622D01*
X-671249Y1889080D01*
X-472212Y2091056D01*
X-42333Y2478180D01*
X54913Y1905000D01*
X119195Y2159000D01*
X176193Y2376475D01*
X217548Y2522656D01*
X348978Y2668005D01*
X639133Y2786243D01*
X1079246Y2875151D01*
X1660550Y2932512D01*
X1883833Y2944223D01*
X2878667Y2986577D01*
X2878667Y3962968D01*
X2501559Y3819821D01*
X2222212Y3706509D01*
X2093023Y3628885D01*
X2102438Y3572408D01*
X2238902Y3522544D01*
X2260807Y3516930D01*
X2497499Y3457524D01*
X2285916Y3340429D01*
X2078919Y3275731D01*
X1756696Y3232380D01*
X1439333Y3218148D01*
X663164Y3136781D01*
X238011Y3019943D01*
X-64769Y2923835D01*
X-222583Y2898695D01*
X-247270Y2951565D01*
X-150666Y3089490D01*
X-57626Y3195833D01*
X68930Y3360195D01*
X76229Y3429344D01*
X-17983Y3407583D01*
X-195959Y3299214D01*
X-439953Y3108543D01*
X-448848Y3100964D01*
X-905855Y2710530D01*
X-837357Y3143844D01*
X-682363Y3850567D01*
X-457539Y4489843D01*
X-175606Y5038706D01*
X150714Y5474190D01*
X508699Y5773328D01*
X662467Y5851560D01*
X955851Y5980730D01*
X1228914Y6113294D01*
X1312333Y6157940D01*
X1518647Y6269353D01*
X1811813Y6422402D01*
X2116667Y6578024D01*
X2387874Y6719681D01*
X2519622Y6804605D01*
X2526698Y6845928D01*
X2430597Y6856762D01*
X2135243Y6833066D01*
G36*
X3480441Y7157743D02*
X3337520Y7109409D01*
X3108017Y7022152D01*
X3304434Y6813076D01*
X3548956Y6644862D01*
X3742749Y6604000D01*
X3936824Y6563913D01*
X4032787Y6478550D01*
X4103374Y6398386D01*
X4241733Y6439272D01*
X4255282Y6446413D01*
X4492012Y6501072D01*
X4829328Y6488370D01*
X5215505Y6414947D01*
X5598821Y6287440D01*
X5643408Y6268273D01*
X5924925Y6100551D01*
X6264883Y5830530D01*
X6617158Y5495684D01*
X6862974Y5238798D01*
X7057054Y5029996D01*
X7174010Y4896933D01*
X7196667Y4864401D01*
X7132005Y4861298D01*
X7057579Y4884687D01*
X6999760Y4898349D01*
X6964506Y4870626D01*
X6952344Y4777803D01*
X6963800Y4596165D01*
X6999403Y4301998D01*
X7059680Y3871586D01*
X7083838Y3704166D01*
X7104904Y3497320D01*
X7063968Y3408067D01*
X6927302Y3387047D01*
X6866893Y3386666D01*
X6684627Y3372494D01*
X6604196Y3338191D01*
X6604000Y3336237D01*
X6655196Y3214789D01*
X6776201Y3045003D01*
X6918140Y2886295D01*
X7032139Y2798081D01*
X7050032Y2794000D01*
X7097804Y2826814D01*
X7044267Y2895600D01*
X6955140Y3019812D01*
X6942667Y3064489D01*
X7003095Y3050878D01*
X7162208Y2952003D01*
X7386753Y2788737D01*
X7408011Y2772389D01*
X7641092Y2576093D01*
X7808141Y2404340D01*
X7873647Y2293732D01*
X7873678Y2292408D01*
X7838747Y2239040D01*
X7722551Y2315221D01*
X7682062Y2352132D01*
X7492093Y2480644D01*
X7322229Y2528015D01*
X7158798Y2557613D01*
X6901254Y2639095D01*
X6646333Y2738085D01*
X6284826Y2870799D01*
X5858724Y2998929D01*
X5525491Y3080198D01*
X5205644Y3155250D01*
X4935904Y3233627D01*
X4744149Y3304808D01*
X4658254Y3358274D01*
X4706098Y3383505D01*
X4720167Y3384092D01*
X4814016Y3454851D01*
X4826000Y3513666D01*
X4760095Y3608636D01*
X4551441Y3640593D01*
X4536592Y3640667D01*
X4296902Y3655276D01*
X4117240Y3690576D01*
X4113258Y3692058D01*
X4032109Y3695325D01*
X3991789Y3601682D01*
X3979876Y3377648D01*
X3979770Y3332225D01*
X3980207Y2921000D01*
X4847604Y2918029D01*
X5270630Y2910997D01*
X5577692Y2887344D01*
X5821984Y2838106D01*
X6056704Y2754322D01*
X6201833Y2689880D01*
X6500072Y2532203D01*
X6652816Y2387460D01*
X6678181Y2224921D01*
X6597149Y2019198D01*
X6536481Y1929097D01*
X6468185Y1926217D01*
X6356568Y2026313D01*
X6214787Y2187981D01*
X5841759Y2501397D01*
X5391167Y2687759D01*
X4906891Y2736443D01*
X4432809Y2636826D01*
X4405742Y2625940D01*
X4206276Y2527085D01*
X4169773Y2462543D01*
X4297245Y2431655D01*
X4589700Y2433759D01*
X4690625Y2439484D01*
X5247224Y2432401D01*
X5676252Y2323202D01*
X5993745Y2099494D01*
X6215741Y1748885D01*
X6358277Y1258980D01*
X6380151Y1133880D01*
X6486372Y465666D01*
X6551829Y1036276D01*
X6595602Y1330890D01*
X6647269Y1553374D01*
X6695310Y1655106D01*
X6744060Y1762756D01*
X6771279Y1973352D01*
X6773333Y2054625D01*
X6773333Y2405923D01*
X7153795Y2032528D01*
X7381357Y1768848D01*
X7627710Y1420696D01*
X7843422Y1058584D01*
X7863601Y1020067D01*
X8075305Y568626D01*
X8301712Y17901D01*
X8524491Y-580726D01*
X8725309Y-1175877D01*
X8885836Y-1716169D01*
X8979816Y-2108504D01*
X9053019Y-2418689D01*
X9133504Y-2600886D01*
X9241467Y-2695948D01*
X9278204Y-2712072D01*
X9477462Y-2845918D01*
X9612632Y-3086089D01*
X9697553Y-3459622D01*
X9710088Y-3555767D01*
X9723731Y-3874197D01*
X9666384Y-4103132D01*
X9614380Y-4195689D01*
X9512149Y-4382725D01*
X9517121Y-4449782D01*
X9613545Y-4393308D01*
X9768465Y-4230413D01*
X9912465Y-4010382D01*
X9987565Y-3800174D01*
X9990667Y-3762557D01*
X9960187Y-3609316D01*
X9876891Y-3336452D01*
X9752989Y-2980687D01*
X9600695Y-2578747D01*
X9577540Y-2520220D01*
X8962043Y-838119D01*
X8467262Y820503D01*
X8175349Y2032000D01*
X7994398Y2836333D01*
X7769580Y2836333D01*
X7765124Y2702494D01*
X7746522Y2716935D01*
X7706602Y2888358D01*
X7699810Y2921000D01*
X7655507Y3182127D01*
X7634982Y3397364D01*
X7634897Y3429000D01*
X7649893Y3496453D01*
X7679930Y3437175D01*
X7715725Y3292013D01*
X7747994Y3101813D01*
X7767457Y2907422D01*
X7769580Y2836333D01*
X7994398Y2836333D01*
X7988324Y2863330D01*
X7819592Y3549521D01*
X7769939Y3725333D01*
X7620000Y3725333D01*
X7589022Y3655643D01*
X7563556Y3668889D01*
X7553423Y3769368D01*
X7563556Y3781778D01*
X7613890Y3770155D01*
X7620000Y3725333D01*
X7769939Y3725333D01*
X7684255Y4028722D01*
X7528649Y4028722D01*
X7513083Y3918908D01*
X7484181Y3917597D01*
X7463969Y4030914D01*
X7477497Y4079875D01*
X7515091Y4111945D01*
X7528649Y4028722D01*
X7684255Y4028722D01*
X7660560Y4112620D01*
X7604832Y4275666D01*
X7450667Y4275666D01*
X7408333Y4233333D01*
X7366000Y4275666D01*
X7408333Y4318000D01*
X7450667Y4275666D01*
X7604832Y4275666D01*
X7518016Y4529666D01*
X7366000Y4529666D01*
X7323667Y4487333D01*
X7281333Y4529666D01*
X7323667Y4572000D01*
X7366000Y4529666D01*
X7518016Y4529666D01*
X7502633Y4574672D01*
X7448944Y4699000D01*
X7281333Y4699000D01*
X7239000Y4656666D01*
X7196667Y4699000D01*
X7239000Y4741333D01*
X7281333Y4699000D01*
X7448944Y4699000D01*
X7337215Y4957725D01*
X7155714Y5283824D01*
X6949533Y5575016D01*
X6710078Y5853346D01*
X6668164Y5898094D01*
X6192398Y6317101D01*
X5648270Y6626775D01*
X4997727Y6847061D01*
X4747923Y6904644D01*
X4422601Y6978847D01*
X4148633Y7052756D01*
X3980872Y7111442D01*
X3972323Y7115752D01*
X3741807Y7190101D01*
X3480441Y7157743D01*
X3480441Y7157743D01*
G37*
X3480441Y7157743D02*
X3337520Y7109409D01*
X3108017Y7022152D01*
X3304434Y6813076D01*
X3548956Y6644862D01*
X3742749Y6604000D01*
X3936824Y6563913D01*
X4032787Y6478550D01*
X4103374Y6398386D01*
X4241733Y6439272D01*
X4255282Y6446413D01*
X4492012Y6501072D01*
X4829328Y6488370D01*
X5215505Y6414947D01*
X5598821Y6287440D01*
X5643408Y6268273D01*
X5924925Y6100551D01*
X6264883Y5830530D01*
X6617158Y5495684D01*
X6862974Y5238798D01*
X7057054Y5029996D01*
X7174010Y4896933D01*
X7196667Y4864401D01*
X7132005Y4861298D01*
X7057579Y4884687D01*
X6999760Y4898349D01*
X6964506Y4870626D01*
X6952344Y4777803D01*
X6963800Y4596165D01*
X6999403Y4301998D01*
X7059680Y3871586D01*
X7083838Y3704166D01*
X7104904Y3497320D01*
X7063968Y3408067D01*
X6927302Y3387047D01*
X6866893Y3386666D01*
X6684627Y3372494D01*
X6604196Y3338191D01*
X6604000Y3336237D01*
X6655196Y3214789D01*
X6776201Y3045003D01*
X6918140Y2886295D01*
X7032139Y2798081D01*
X7050032Y2794000D01*
X7097804Y2826814D01*
X7044267Y2895600D01*
X6955140Y3019812D01*
X6942667Y3064489D01*
X7003095Y3050878D01*
X7162208Y2952003D01*
X7386753Y2788737D01*
X7408011Y2772389D01*
X7641092Y2576093D01*
X7808141Y2404340D01*
X7873647Y2293732D01*
X7873678Y2292408D01*
X7838747Y2239040D01*
X7722551Y2315221D01*
X7682062Y2352132D01*
X7492093Y2480644D01*
X7322229Y2528015D01*
X7158798Y2557613D01*
X6901254Y2639095D01*
X6646333Y2738085D01*
X6284826Y2870799D01*
X5858724Y2998929D01*
X5525491Y3080198D01*
X5205644Y3155250D01*
X4935904Y3233627D01*
X4744149Y3304808D01*
X4658254Y3358274D01*
X4706098Y3383505D01*
X4720167Y3384092D01*
X4814016Y3454851D01*
X4826000Y3513666D01*
X4760095Y3608636D01*
X4551441Y3640593D01*
X4536592Y3640667D01*
X4296902Y3655276D01*
X4117240Y3690576D01*
X4113258Y3692058D01*
X4032109Y3695325D01*
X3991789Y3601682D01*
X3979876Y3377648D01*
X3979770Y3332225D01*
X3980207Y2921000D01*
X4847604Y2918029D01*
X5270630Y2910997D01*
X5577692Y2887344D01*
X5821984Y2838106D01*
X6056704Y2754322D01*
X6201833Y2689880D01*
X6500072Y2532203D01*
X6652816Y2387460D01*
X6678181Y2224921D01*
X6597149Y2019198D01*
X6536481Y1929097D01*
X6468185Y1926217D01*
X6356568Y2026313D01*
X6214787Y2187981D01*
X5841759Y2501397D01*
X5391167Y2687759D01*
X4906891Y2736443D01*
X4432809Y2636826D01*
X4405742Y2625940D01*
X4206276Y2527085D01*
X4169773Y2462543D01*
X4297245Y2431655D01*
X4589700Y2433759D01*
X4690625Y2439484D01*
X5247224Y2432401D01*
X5676252Y2323202D01*
X5993745Y2099494D01*
X6215741Y1748885D01*
X6358277Y1258980D01*
X6380151Y1133880D01*
X6486372Y465666D01*
X6551829Y1036276D01*
X6595602Y1330890D01*
X6647269Y1553374D01*
X6695310Y1655106D01*
X6744060Y1762756D01*
X6771279Y1973352D01*
X6773333Y2054625D01*
X6773333Y2405923D01*
X7153795Y2032528D01*
X7381357Y1768848D01*
X7627710Y1420696D01*
X7843422Y1058584D01*
X7863601Y1020067D01*
X8075305Y568626D01*
X8301712Y17901D01*
X8524491Y-580726D01*
X8725309Y-1175877D01*
X8885836Y-1716169D01*
X8979816Y-2108504D01*
X9053019Y-2418689D01*
X9133504Y-2600886D01*
X9241467Y-2695948D01*
X9278204Y-2712072D01*
X9477462Y-2845918D01*
X9612632Y-3086089D01*
X9697553Y-3459622D01*
X9710088Y-3555767D01*
X9723731Y-3874197D01*
X9666384Y-4103132D01*
X9614380Y-4195689D01*
X9512149Y-4382725D01*
X9517121Y-4449782D01*
X9613545Y-4393308D01*
X9768465Y-4230413D01*
X9912465Y-4010382D01*
X9987565Y-3800174D01*
X9990667Y-3762557D01*
X9960187Y-3609316D01*
X9876891Y-3336452D01*
X9752989Y-2980687D01*
X9600695Y-2578747D01*
X9577540Y-2520220D01*
X8962043Y-838119D01*
X8467262Y820503D01*
X8175349Y2032000D01*
X7994398Y2836333D01*
X7769580Y2836333D01*
X7765124Y2702494D01*
X7746522Y2716935D01*
X7706602Y2888358D01*
X7699810Y2921000D01*
X7655507Y3182127D01*
X7634982Y3397364D01*
X7634897Y3429000D01*
X7649893Y3496453D01*
X7679930Y3437175D01*
X7715725Y3292013D01*
X7747994Y3101813D01*
X7767457Y2907422D01*
X7769580Y2836333D01*
X7994398Y2836333D01*
X7988324Y2863330D01*
X7819592Y3549521D01*
X7769939Y3725333D01*
X7620000Y3725333D01*
X7589022Y3655643D01*
X7563556Y3668889D01*
X7553423Y3769368D01*
X7563556Y3781778D01*
X7613890Y3770155D01*
X7620000Y3725333D01*
X7769939Y3725333D01*
X7684255Y4028722D01*
X7528649Y4028722D01*
X7513083Y3918908D01*
X7484181Y3917597D01*
X7463969Y4030914D01*
X7477497Y4079875D01*
X7515091Y4111945D01*
X7528649Y4028722D01*
X7684255Y4028722D01*
X7660560Y4112620D01*
X7604832Y4275666D01*
X7450667Y4275666D01*
X7408333Y4233333D01*
X7366000Y4275666D01*
X7408333Y4318000D01*
X7450667Y4275666D01*
X7604832Y4275666D01*
X7518016Y4529666D01*
X7366000Y4529666D01*
X7323667Y4487333D01*
X7281333Y4529666D01*
X7323667Y4572000D01*
X7366000Y4529666D01*
X7518016Y4529666D01*
X7502633Y4574672D01*
X7448944Y4699000D01*
X7281333Y4699000D01*
X7239000Y4656666D01*
X7196667Y4699000D01*
X7239000Y4741333D01*
X7281333Y4699000D01*
X7448944Y4699000D01*
X7337215Y4957725D01*
X7155714Y5283824D01*
X6949533Y5575016D01*
X6710078Y5853346D01*
X6668164Y5898094D01*
X6192398Y6317101D01*
X5648270Y6626775D01*
X4997727Y6847061D01*
X4747923Y6904644D01*
X4422601Y6978847D01*
X4148633Y7052756D01*
X3980872Y7111442D01*
X3972323Y7115752D01*
X3741807Y7190101D01*
X3480441Y7157743D01*
G36*
X6604023Y-2265415D02*
X6385927Y-2319329D01*
X6010515Y-2392486D01*
X5777050Y-2378439D01*
X5749065Y-2366242D01*
X5532556Y-2292079D01*
X5380626Y-2317544D01*
X5334000Y-2413000D01*
X5314014Y-2454998D01*
X5240884Y-2486798D01*
X5094855Y-2509747D01*
X4856168Y-2525194D01*
X4505067Y-2534484D01*
X4021796Y-2538965D01*
X3471333Y-2540000D01*
X2810581Y-2543781D01*
X2285388Y-2554862D01*
X1904389Y-2572850D01*
X1676218Y-2597354D01*
X1608667Y-2624667D01*
X1681123Y-2688313D01*
X1820333Y-2709334D01*
X1992386Y-2754875D01*
X2032000Y-2841555D01*
X2106943Y-2949970D01*
X2312309Y-3093766D01*
X2561167Y-3224961D01*
X2788415Y-3338426D01*
X2906893Y-3409465D01*
X2895834Y-3425237D01*
X2878667Y-3421263D01*
X2421921Y-3262345D01*
X2085994Y-3059431D01*
X1997711Y-2975019D01*
X1839942Y-2833418D01*
X1731735Y-2800374D01*
X1703573Y-2883096D01*
X1708292Y-2906572D01*
X1786838Y-3022781D01*
X1966552Y-3211498D01*
X2215143Y-3445050D01*
X2500325Y-3695767D01*
X2789808Y-3935978D01*
X3051304Y-4138011D01*
X3252525Y-4274196D01*
X3354761Y-4317598D01*
X3486953Y-4268171D01*
X3714235Y-4135450D01*
X3999712Y-3942223D01*
X4191000Y-3801080D01*
X4633564Y-3468595D01*
X4987553Y-3217851D01*
X5295588Y-3023528D01*
X5600288Y-2860305D01*
X5679523Y-2824038D01*
X4906400Y-2824038D01*
X4872105Y-2919575D01*
X4716127Y-3088740D01*
X4431476Y-3339667D01*
X4179520Y-3546138D01*
X3874032Y-3780256D01*
X3609220Y-3961552D01*
X3416273Y-4069983D01*
X3332854Y-4090213D01*
X3228604Y-4026059D01*
X3217333Y-4003550D01*
X3280763Y-3991015D01*
X3341622Y-4008911D01*
X3475461Y-4011859D01*
X3511483Y-3982867D01*
X3491500Y-3891461D01*
X3450694Y-3866249D01*
X3436696Y-3832154D01*
X3539830Y-3816684D01*
X3640690Y-3789758D01*
X3180612Y-3789758D01*
X3097389Y-3803316D01*
X2987575Y-3787749D01*
X2986264Y-3758847D01*
X3099581Y-3738636D01*
X3148542Y-3752163D01*
X3180612Y-3789758D01*
X3640690Y-3789758D01*
X3669785Y-3781991D01*
X3683000Y-3725334D01*
X3708233Y-3658066D01*
X3800007Y-3640667D01*
X3964098Y-3605436D01*
X3980203Y-3584222D01*
X3527778Y-3584222D01*
X3516156Y-3634557D01*
X3471333Y-3640667D01*
X3401643Y-3609689D01*
X3414889Y-3584222D01*
X3515369Y-3574089D01*
X3527778Y-3584222D01*
X3980203Y-3584222D01*
X4022636Y-3528330D01*
X3995373Y-3499556D01*
X3273778Y-3499556D01*
X3262156Y-3549890D01*
X3217333Y-3556000D01*
X3147643Y-3525022D01*
X3160889Y-3499556D01*
X3261369Y-3489423D01*
X3273778Y-3499556D01*
X3995373Y-3499556D01*
X3950535Y-3452233D01*
X3917063Y-3440571D01*
X3389130Y-3287471D01*
X3006986Y-3173216D01*
X2753059Y-3092079D01*
X2609777Y-3038333D01*
X2559565Y-3006249D01*
X2561154Y-2998624D01*
X2653462Y-3004100D01*
X2869251Y-3050158D01*
X3170017Y-3128044D01*
X3332544Y-3173958D01*
X3734256Y-3288002D01*
X3998722Y-3354414D01*
X4150463Y-3375608D01*
X4214003Y-3353999D01*
X4213861Y-3292002D01*
X4202716Y-3259667D01*
X4211997Y-3163941D01*
X4358281Y-3132873D01*
X4379924Y-3132667D01*
X4522833Y-3109844D01*
X4519202Y-3076222D01*
X4035778Y-3076222D01*
X4024156Y-3126557D01*
X3979333Y-3132667D01*
X3909643Y-3101689D01*
X3922889Y-3076222D01*
X4023369Y-3066089D01*
X4035778Y-3076222D01*
X4519202Y-3076222D01*
X4516391Y-3050196D01*
X4415395Y-2991556D01*
X3781778Y-2991556D01*
X3770156Y-3041890D01*
X3725333Y-3048000D01*
X3655643Y-3017022D01*
X3668889Y-2991556D01*
X3769369Y-2981423D01*
X3781778Y-2991556D01*
X4415395Y-2991556D01*
X4373014Y-2966949D01*
X4206006Y-2906889D01*
X3527778Y-2906889D01*
X3516156Y-2957223D01*
X3471333Y-2963334D01*
X3431786Y-2945754D01*
X2438436Y-2945754D01*
X2413000Y-2960741D01*
X2273861Y-2918584D01*
X2201333Y-2878667D01*
X2133564Y-2811579D01*
X2159000Y-2796593D01*
X2298139Y-2838749D01*
X2370667Y-2878667D01*
X2438436Y-2945754D01*
X3431786Y-2945754D01*
X3401643Y-2932355D01*
X3414889Y-2906889D01*
X3515369Y-2896756D01*
X3527778Y-2906889D01*
X4206006Y-2906889D01*
X4148667Y-2886269D01*
X3938536Y-2822222D01*
X3273778Y-2822222D01*
X3262156Y-2872557D01*
X3217333Y-2878667D01*
X3147643Y-2847689D01*
X3160889Y-2822222D01*
X3261369Y-2812089D01*
X3273778Y-2822222D01*
X3938536Y-2822222D01*
X3852333Y-2795948D01*
X4175846Y-2842272D01*
X4419350Y-2884406D01*
X4600917Y-2928288D01*
X4620346Y-2935023D01*
X4725359Y-2927998D01*
X4741333Y-2887725D01*
X4800574Y-2798344D01*
X4826000Y-2794000D01*
X4906400Y-2824038D01*
X5679523Y-2824038D01*
X5944270Y-2702861D01*
X6265985Y-2568302D01*
X6642568Y-2406416D01*
X6865816Y-2292790D01*
X6934577Y-2229819D01*
X6847698Y-2219896D01*
X6604023Y-2265415D01*
X6604023Y-2265415D01*
G37*
X6604023Y-2265415D02*
X6385927Y-2319329D01*
X6010515Y-2392486D01*
X5777050Y-2378439D01*
X5749065Y-2366242D01*
X5532556Y-2292079D01*
X5380626Y-2317544D01*
X5334000Y-2413000D01*
X5314014Y-2454998D01*
X5240884Y-2486798D01*
X5094855Y-2509747D01*
X4856168Y-2525194D01*
X4505067Y-2534484D01*
X4021796Y-2538965D01*
X3471333Y-2540000D01*
X2810581Y-2543781D01*
X2285388Y-2554862D01*
X1904389Y-2572850D01*
X1676218Y-2597354D01*
X1608667Y-2624667D01*
X1681123Y-2688313D01*
X1820333Y-2709334D01*
X1992386Y-2754875D01*
X2032000Y-2841555D01*
X2106943Y-2949970D01*
X2312309Y-3093766D01*
X2561167Y-3224961D01*
X2788415Y-3338426D01*
X2906893Y-3409465D01*
X2895834Y-3425237D01*
X2878667Y-3421263D01*
X2421921Y-3262345D01*
X2085994Y-3059431D01*
X1997711Y-2975019D01*
X1839942Y-2833418D01*
X1731735Y-2800374D01*
X1703573Y-2883096D01*
X1708292Y-2906572D01*
X1786838Y-3022781D01*
X1966552Y-3211498D01*
X2215143Y-3445050D01*
X2500325Y-3695767D01*
X2789808Y-3935978D01*
X3051304Y-4138011D01*
X3252525Y-4274196D01*
X3354761Y-4317598D01*
X3486953Y-4268171D01*
X3714235Y-4135450D01*
X3999712Y-3942223D01*
X4191000Y-3801080D01*
X4633564Y-3468595D01*
X4987553Y-3217851D01*
X5295588Y-3023528D01*
X5600288Y-2860305D01*
X5679523Y-2824038D01*
X4906400Y-2824038D01*
X4872105Y-2919575D01*
X4716127Y-3088740D01*
X4431476Y-3339667D01*
X4179520Y-3546138D01*
X3874032Y-3780256D01*
X3609220Y-3961552D01*
X3416273Y-4069983D01*
X3332854Y-4090213D01*
X3228604Y-4026059D01*
X3217333Y-4003550D01*
X3280763Y-3991015D01*
X3341622Y-4008911D01*
X3475461Y-4011859D01*
X3511483Y-3982867D01*
X3491500Y-3891461D01*
X3450694Y-3866249D01*
X3436696Y-3832154D01*
X3539830Y-3816684D01*
X3640690Y-3789758D01*
X3180612Y-3789758D01*
X3097389Y-3803316D01*
X2987575Y-3787749D01*
X2986264Y-3758847D01*
X3099581Y-3738636D01*
X3148542Y-3752163D01*
X3180612Y-3789758D01*
X3640690Y-3789758D01*
X3669785Y-3781991D01*
X3683000Y-3725334D01*
X3708233Y-3658066D01*
X3800007Y-3640667D01*
X3964098Y-3605436D01*
X3980203Y-3584222D01*
X3527778Y-3584222D01*
X3516156Y-3634557D01*
X3471333Y-3640667D01*
X3401643Y-3609689D01*
X3414889Y-3584222D01*
X3515369Y-3574089D01*
X3527778Y-3584222D01*
X3980203Y-3584222D01*
X4022636Y-3528330D01*
X3995373Y-3499556D01*
X3273778Y-3499556D01*
X3262156Y-3549890D01*
X3217333Y-3556000D01*
X3147643Y-3525022D01*
X3160889Y-3499556D01*
X3261369Y-3489423D01*
X3273778Y-3499556D01*
X3995373Y-3499556D01*
X3950535Y-3452233D01*
X3917063Y-3440571D01*
X3389130Y-3287471D01*
X3006986Y-3173216D01*
X2753059Y-3092079D01*
X2609777Y-3038333D01*
X2559565Y-3006249D01*
X2561154Y-2998624D01*
X2653462Y-3004100D01*
X2869251Y-3050158D01*
X3170017Y-3128044D01*
X3332544Y-3173958D01*
X3734256Y-3288002D01*
X3998722Y-3354414D01*
X4150463Y-3375608D01*
X4214003Y-3353999D01*
X4213861Y-3292002D01*
X4202716Y-3259667D01*
X4211997Y-3163941D01*
X4358281Y-3132873D01*
X4379924Y-3132667D01*
X4522833Y-3109844D01*
X4519202Y-3076222D01*
X4035778Y-3076222D01*
X4024156Y-3126557D01*
X3979333Y-3132667D01*
X3909643Y-3101689D01*
X3922889Y-3076222D01*
X4023369Y-3066089D01*
X4035778Y-3076222D01*
X4519202Y-3076222D01*
X4516391Y-3050196D01*
X4415395Y-2991556D01*
X3781778Y-2991556D01*
X3770156Y-3041890D01*
X3725333Y-3048000D01*
X3655643Y-3017022D01*
X3668889Y-2991556D01*
X3769369Y-2981423D01*
X3781778Y-2991556D01*
X4415395Y-2991556D01*
X4373014Y-2966949D01*
X4206006Y-2906889D01*
X3527778Y-2906889D01*
X3516156Y-2957223D01*
X3471333Y-2963334D01*
X3431786Y-2945754D01*
X2438436Y-2945754D01*
X2413000Y-2960741D01*
X2273861Y-2918584D01*
X2201333Y-2878667D01*
X2133564Y-2811579D01*
X2159000Y-2796593D01*
X2298139Y-2838749D01*
X2370667Y-2878667D01*
X2438436Y-2945754D01*
X3431786Y-2945754D01*
X3401643Y-2932355D01*
X3414889Y-2906889D01*
X3515369Y-2896756D01*
X3527778Y-2906889D01*
X4206006Y-2906889D01*
X4148667Y-2886269D01*
X3938536Y-2822222D01*
X3273778Y-2822222D01*
X3262156Y-2872557D01*
X3217333Y-2878667D01*
X3147643Y-2847689D01*
X3160889Y-2822222D01*
X3261369Y-2812089D01*
X3273778Y-2822222D01*
X3938536Y-2822222D01*
X3852333Y-2795948D01*
X4175846Y-2842272D01*
X4419350Y-2884406D01*
X4600917Y-2928288D01*
X4620346Y-2935023D01*
X4725359Y-2927998D01*
X4741333Y-2887725D01*
X4800574Y-2798344D01*
X4826000Y-2794000D01*
X4906400Y-2824038D01*
X5679523Y-2824038D01*
X5944270Y-2702861D01*
X6265985Y-2568302D01*
X6642568Y-2406416D01*
X6865816Y-2292790D01*
X6934577Y-2229819D01*
X6847698Y-2219896D01*
X6604023Y-2265415D01*
G36*
X-186978Y-2014254D02*
X-216222Y-2042641D01*
X-301746Y-2151661D01*
X-298935Y-2267240D01*
X-219284Y-2440603D01*
X-126551Y-2656242D01*
X-84847Y-2824980D01*
X-84667Y-2832129D01*
X-35158Y-2947390D01*
X9870Y-2963334D01*
X68810Y-2894260D01*
X63091Y-2772834D01*
X986Y-2548511D01*
X-40872Y-2433207D01*
X-61350Y-2326640D01*
X30731Y-2335597D01*
X164508Y-2331162D01*
X294706Y-2256509D01*
X369218Y-2155684D01*
X339316Y-2074735D01*
X197271Y-2063470D01*
X159867Y-2080184D01*
X42125Y-2072020D01*
X-6404Y-2021681D01*
X-82699Y-1952611D01*
X-186978Y-2014254D01*
X-186978Y-2014254D01*
G37*
X-186978Y-2014254D02*
X-216222Y-2042641D01*
X-301746Y-2151661D01*
X-298935Y-2267240D01*
X-219284Y-2440603D01*
X-126551Y-2656242D01*
X-84847Y-2824980D01*
X-84667Y-2832129D01*
X-35158Y-2947390D01*
X9870Y-2963334D01*
X68810Y-2894260D01*
X63091Y-2772834D01*
X986Y-2548511D01*
X-40872Y-2433207D01*
X-61350Y-2326640D01*
X30731Y-2335597D01*
X164508Y-2331162D01*
X294706Y-2256509D01*
X369218Y-2155684D01*
X339316Y-2074735D01*
X197271Y-2063470D01*
X159867Y-2080184D01*
X42125Y-2072020D01*
X-6404Y-2021681D01*
X-82699Y-1952611D01*
X-186978Y-2014254D01*
G36*
X1203633Y-2274664D02*
X1139499Y-2392346D01*
X1176897Y-2536103D01*
X1288743Y-2621866D01*
X1316395Y-2624667D01*
X1460391Y-2563459D01*
X1486688Y-2531875D01*
X1487005Y-2404659D01*
X1387043Y-2293869D01*
X1250664Y-2257537D01*
X1203633Y-2274664D01*
X1203633Y-2274664D01*
G37*
X1203633Y-2274664D02*
X1139499Y-2392346D01*
X1176897Y-2536103D01*
X1288743Y-2621866D01*
X1316395Y-2624667D01*
X1460391Y-2563459D01*
X1486688Y-2531875D01*
X1487005Y-2404659D01*
X1387043Y-2293869D01*
X1250664Y-2257537D01*
X1203633Y-2274664D01*
G36*
X3609008Y-810154D02*
X3575860Y-948116D01*
X3559331Y-1218044D01*
X3556000Y-1516945D01*
X3553236Y-1880930D01*
X3540216Y-2107711D01*
X3509854Y-2229386D01*
X3455061Y-2278054D01*
X3386173Y-2286000D01*
X3305236Y-2275759D01*
X3259087Y-2223091D01*
X3242611Y-2095081D01*
X3250693Y-1858815D01*
X3272549Y-1554819D01*
X3295802Y-1198670D01*
X3296899Y-982739D01*
X3273291Y-879051D01*
X3222431Y-859629D01*
X3209543Y-863134D01*
X3142809Y-940625D01*
X3098062Y-1135623D01*
X3070873Y-1470640D01*
X3065743Y-1594315D01*
X3046228Y-1951336D01*
X3014816Y-2166731D01*
X2965595Y-2268103D01*
X2917576Y-2286000D01*
X2851995Y-2249908D01*
X2813526Y-2121909D01*
X2796413Y-1872421D01*
X2794000Y-1651000D01*
X2785298Y-1347479D01*
X2762279Y-1122948D01*
X2729573Y-1018776D01*
X2722924Y-1016000D01*
X2622824Y-1093293D01*
X2535626Y-1295679D01*
X2475246Y-1578925D01*
X2455333Y-1866651D01*
X2440941Y-2133252D01*
X2391928Y-2262035D01*
X2330991Y-2286000D01*
X2245575Y-2229903D01*
X2255382Y-2159000D01*
X2269713Y-1971178D01*
X2250516Y-1892317D01*
X2198839Y-1812272D01*
X2114133Y-1839319D01*
X1987457Y-1949409D01*
X1842651Y-2128597D01*
X1778207Y-2293678D01*
X1778000Y-2300759D01*
X1788091Y-2353925D01*
X1832992Y-2393309D01*
X1934643Y-2420965D01*
X2114987Y-2438942D01*
X2395963Y-2449293D01*
X2799515Y-2454070D01*
X3347581Y-2455322D01*
X3431174Y-2455334D01*
X5084349Y-2455334D01*
X4955777Y-2206702D01*
X4818015Y-1982784D01*
X4717282Y-1905960D01*
X4663215Y-1980658D01*
X4656667Y-2069337D01*
X4618912Y-2237808D01*
X4487333Y-2286000D01*
X4385112Y-2263324D01*
X4334534Y-2167395D01*
X4318581Y-1956358D01*
X4318000Y-1869592D01*
X4297088Y-1482464D01*
X4233664Y-1255699D01*
X4132384Y-1185334D01*
X4091588Y-1263642D01*
X4073227Y-1475268D01*
X4077942Y-1735844D01*
X4087561Y-2035526D01*
X4072338Y-2202900D01*
X4024622Y-2274118D01*
X3961463Y-2286178D01*
X3889885Y-2263364D01*
X3843338Y-2174251D01*
X3814597Y-1987518D01*
X3796438Y-1671841D01*
X3792130Y-1551999D01*
X3766103Y-1131192D01*
X3721285Y-875509D01*
X3661833Y-782944D01*
X3609008Y-810154D01*
X3609008Y-810154D01*
G37*
X3609008Y-810154D02*
X3575860Y-948116D01*
X3559331Y-1218044D01*
X3556000Y-1516945D01*
X3553236Y-1880930D01*
X3540216Y-2107711D01*
X3509854Y-2229386D01*
X3455061Y-2278054D01*
X3386173Y-2286000D01*
X3305236Y-2275759D01*
X3259087Y-2223091D01*
X3242611Y-2095081D01*
X3250693Y-1858815D01*
X3272549Y-1554819D01*
X3295802Y-1198670D01*
X3296899Y-982739D01*
X3273291Y-879051D01*
X3222431Y-859629D01*
X3209543Y-863134D01*
X3142809Y-940625D01*
X3098062Y-1135623D01*
X3070873Y-1470640D01*
X3065743Y-1594315D01*
X3046228Y-1951336D01*
X3014816Y-2166731D01*
X2965595Y-2268103D01*
X2917576Y-2286000D01*
X2851995Y-2249908D01*
X2813526Y-2121909D01*
X2796413Y-1872421D01*
X2794000Y-1651000D01*
X2785298Y-1347479D01*
X2762279Y-1122948D01*
X2729573Y-1018776D01*
X2722924Y-1016000D01*
X2622824Y-1093293D01*
X2535626Y-1295679D01*
X2475246Y-1578925D01*
X2455333Y-1866651D01*
X2440941Y-2133252D01*
X2391928Y-2262035D01*
X2330991Y-2286000D01*
X2245575Y-2229903D01*
X2255382Y-2159000D01*
X2269713Y-1971178D01*
X2250516Y-1892317D01*
X2198839Y-1812272D01*
X2114133Y-1839319D01*
X1987457Y-1949409D01*
X1842651Y-2128597D01*
X1778207Y-2293678D01*
X1778000Y-2300759D01*
X1788091Y-2353925D01*
X1832992Y-2393309D01*
X1934643Y-2420965D01*
X2114987Y-2438942D01*
X2395963Y-2449293D01*
X2799515Y-2454070D01*
X3347581Y-2455322D01*
X3431174Y-2455334D01*
X5084349Y-2455334D01*
X4955777Y-2206702D01*
X4818015Y-1982784D01*
X4717282Y-1905960D01*
X4663215Y-1980658D01*
X4656667Y-2069337D01*
X4618912Y-2237808D01*
X4487333Y-2286000D01*
X4385112Y-2263324D01*
X4334534Y-2167395D01*
X4318581Y-1956358D01*
X4318000Y-1869592D01*
X4297088Y-1482464D01*
X4233664Y-1255699D01*
X4132384Y-1185334D01*
X4091588Y-1263642D01*
X4073227Y-1475268D01*
X4077942Y-1735844D01*
X4087561Y-2035526D01*
X4072338Y-2202900D01*
X4024622Y-2274118D01*
X3961463Y-2286178D01*
X3889885Y-2263364D01*
X3843338Y-2174251D01*
X3814597Y-1987518D01*
X3796438Y-1671841D01*
X3792130Y-1551999D01*
X3766103Y-1131192D01*
X3721285Y-875509D01*
X3661833Y-782944D01*
X3609008Y-810154D01*
G36*
X6768228Y-581734D02*
X6639146Y-736353D01*
X6467051Y-968373D01*
X6274687Y-1244313D01*
X6084796Y-1530689D01*
X5920120Y-1794019D01*
X5803402Y-2000819D01*
X5757384Y-2117606D01*
X5757333Y-2119534D01*
X5776924Y-2253710D01*
X5840056Y-2263615D01*
X5953269Y-2141997D01*
X6123106Y-1881606D01*
X6356107Y-1475191D01*
X6383766Y-1425088D01*
X6567662Y-1085111D01*
X6713635Y-803789D01*
X6806473Y-611258D01*
X6831556Y-538000D01*
X6768228Y-581734D01*
X6768228Y-581734D01*
G37*
X6768228Y-581734D02*
X6639146Y-736353D01*
X6467051Y-968373D01*
X6274687Y-1244313D01*
X6084796Y-1530689D01*
X5920120Y-1794019D01*
X5803402Y-2000819D01*
X5757384Y-2117606D01*
X5757333Y-2119534D01*
X5776924Y-2253710D01*
X5840056Y-2263615D01*
X5953269Y-2141997D01*
X6123106Y-1881606D01*
X6356107Y-1475191D01*
X6383766Y-1425088D01*
X6567662Y-1085111D01*
X6713635Y-803789D01*
X6806473Y-611258D01*
X6831556Y-538000D01*
X6768228Y-581734D01*
G36*
X6431992Y-1712217D02*
X6358283Y-1875301D01*
X6290018Y-2076669D01*
X6283886Y-2175813D01*
X6368452Y-2188169D01*
X6572283Y-2129174D01*
X6731000Y-2076704D01*
X7069667Y-1965089D01*
X6784625Y-1956211D01*
X6593894Y-1934843D01*
X6531932Y-1867823D01*
X6543866Y-1778000D01*
X6558824Y-1633823D01*
X6511794Y-1617001D01*
X6431992Y-1712217D01*
X6431992Y-1712217D01*
G37*
X6431992Y-1712217D02*
X6358283Y-1875301D01*
X6290018Y-2076669D01*
X6283886Y-2175813D01*
X6368452Y-2188169D01*
X6572283Y-2129174D01*
X6731000Y-2076704D01*
X7069667Y-1965089D01*
X6784625Y-1956211D01*
X6593894Y-1934843D01*
X6531932Y-1867823D01*
X6543866Y-1778000D01*
X6558824Y-1633823D01*
X6511794Y-1617001D01*
X6431992Y-1712217D01*
G36*
X4865425Y-1600140D02*
X4959484Y-1761330D01*
X5086418Y-1949920D01*
X5254958Y-2109092D01*
X5450261Y-2183291D01*
X5609362Y-2150291D01*
X5622104Y-2139007D01*
X5659078Y-2025352D01*
X5668328Y-1905000D01*
X5418667Y-1905000D01*
X5376333Y-1947334D01*
X5334000Y-1905000D01*
X5376333Y-1862667D01*
X5418667Y-1905000D01*
X5668328Y-1905000D01*
X5672667Y-1848556D01*
X5649949Y-1678276D01*
X5546213Y-1615599D01*
X5418667Y-1608667D01*
X5240388Y-1636968D01*
X5164689Y-1705166D01*
X5164667Y-1706456D01*
X5112469Y-1729260D01*
X4984957Y-1646595D01*
X4980780Y-1642956D01*
X4873152Y-1562508D01*
X4865425Y-1600140D01*
X4865425Y-1600140D01*
G37*
X4865425Y-1600140D02*
X4959484Y-1761330D01*
X5086418Y-1949920D01*
X5254958Y-2109092D01*
X5450261Y-2183291D01*
X5609362Y-2150291D01*
X5622104Y-2139007D01*
X5659078Y-2025352D01*
X5668328Y-1905000D01*
X5418667Y-1905000D01*
X5376333Y-1947334D01*
X5334000Y-1905000D01*
X5376333Y-1862667D01*
X5418667Y-1905000D01*
X5668328Y-1905000D01*
X5672667Y-1848556D01*
X5649949Y-1678276D01*
X5546213Y-1615599D01*
X5418667Y-1608667D01*
X5240388Y-1636968D01*
X5164689Y-1705166D01*
X5164667Y-1706456D01*
X5112469Y-1729260D01*
X4984957Y-1646595D01*
X4980780Y-1642956D01*
X4873152Y-1562508D01*
X4865425Y-1600140D01*
G36*
X174340Y350494D02*
X169333Y210030D01*
X169333Y-29517D01*
X-42333Y169333D01*
X-194852Y294566D01*
X-255429Y306186D01*
X-233414Y226279D01*
X-138159Y76927D01*
X20985Y-119783D01*
X130040Y-237762D01*
X514080Y-635000D01*
X459291Y-296334D01*
X404503Y42333D01*
X625585Y-249283D01*
X738009Y-444079D01*
X819698Y-667777D01*
X858464Y-868945D01*
X842120Y-996152D01*
X807280Y-1016000D01*
X725932Y-965140D01*
X565158Y-836363D01*
X474317Y-758237D01*
X358646Y-671821D01*
X148575Y-671821D01*
X136994Y-677334D01*
X59728Y-617730D01*
X42333Y-592667D01*
X20759Y-513513D01*
X32340Y-508000D01*
X109605Y-567604D01*
X127000Y-592667D01*
X148575Y-671821D01*
X358646Y-671821D01*
X283614Y-615766D01*
X82205Y-501198D01*
X-83391Y-436434D01*
X-166654Y-443373D01*
X-169333Y-455237D01*
X-120630Y-537173D01*
X6821Y-714159D01*
X185039Y-949786D01*
X386037Y-1207642D01*
X581832Y-1451319D01*
X744440Y-1644406D01*
X746053Y-1646242D01*
X944128Y-1853303D01*
X1045147Y-1924201D01*
X1041694Y-1866432D01*
X926356Y-1687495D01*
X829753Y-1561618D01*
X563519Y-1227667D01*
X941131Y-1587500D01*
X1155276Y-1777600D01*
X1330205Y-1908013D01*
X1415163Y-1947334D01*
X1510721Y-2017625D01*
X1540028Y-2095033D01*
X1578220Y-2160183D01*
X1660949Y-2104493D01*
X1786801Y-1946866D01*
X1937574Y-1725972D01*
X2116689Y-1438971D01*
X2202116Y-1294269D01*
X2018352Y-1294269D01*
X1997752Y-1341585D01*
X1912501Y-1432479D01*
X1863491Y-1413833D01*
X1862667Y-1401997D01*
X1922804Y-1330384D01*
X1960415Y-1304249D01*
X2018352Y-1294269D01*
X2202116Y-1294269D01*
X2305052Y-1119911D01*
X2349892Y-1040269D01*
X2187686Y-1040269D01*
X2167085Y-1087585D01*
X2081835Y-1178479D01*
X2032824Y-1159833D01*
X2032000Y-1147997D01*
X2092137Y-1076384D01*
X2129749Y-1050249D01*
X2187686Y-1040269D01*
X2349892Y-1040269D01*
X2483571Y-802842D01*
X2633152Y-521813D01*
X2734704Y-310872D01*
X2769133Y-204068D01*
X2767026Y-198804D01*
X2700142Y-243105D01*
X2549223Y-393874D01*
X2337567Y-626610D01*
X2120222Y-878991D01*
X1805181Y-1235547D01*
X1570914Y-1461979D01*
X1422637Y-1553462D01*
X1391801Y-1552623D01*
X1283848Y-1458002D01*
X1310787Y-1300226D01*
X1392540Y-1185334D01*
X576578Y-1185334D01*
X494920Y-1129693D01*
X381000Y-1016000D01*
X283223Y-893350D01*
X270089Y-846667D01*
X351747Y-902307D01*
X465667Y-1016000D01*
X563444Y-1138650D01*
X576578Y-1185334D01*
X1392540Y-1185334D01*
X1476135Y-1067854D01*
X1574137Y-959578D01*
X1751494Y-754203D01*
X1818677Y-616336D01*
X1794607Y-503908D01*
X1785803Y-489032D01*
X1710470Y-283758D01*
X1693333Y-140307D01*
X1680830Y-35265D01*
X1619317Y30570D01*
X1472791Y72394D01*
X1205247Y105407D01*
X1083779Y117002D01*
X699242Y172056D01*
X424149Y251642D01*
X321779Y311616D01*
X213566Y394989D01*
X174340Y350494D01*
X174340Y350494D01*
G37*
X174340Y350494D02*
X169333Y210030D01*
X169333Y-29517D01*
X-42333Y169333D01*
X-194852Y294566D01*
X-255429Y306186D01*
X-233414Y226279D01*
X-138159Y76927D01*
X20985Y-119783D01*
X130040Y-237762D01*
X514080Y-635000D01*
X459291Y-296334D01*
X404503Y42333D01*
X625585Y-249283D01*
X738009Y-444079D01*
X819698Y-667777D01*
X858464Y-868945D01*
X842120Y-996152D01*
X807280Y-1016000D01*
X725932Y-965140D01*
X565158Y-836363D01*
X474317Y-758237D01*
X358646Y-671821D01*
X148575Y-671821D01*
X136994Y-677334D01*
X59728Y-617730D01*
X42333Y-592667D01*
X20759Y-513513D01*
X32340Y-508000D01*
X109605Y-567604D01*
X127000Y-592667D01*
X148575Y-671821D01*
X358646Y-671821D01*
X283614Y-615766D01*
X82205Y-501198D01*
X-83391Y-436434D01*
X-166654Y-443373D01*
X-169333Y-455237D01*
X-120630Y-537173D01*
X6821Y-714159D01*
X185039Y-949786D01*
X386037Y-1207642D01*
X581832Y-1451319D01*
X744440Y-1644406D01*
X746053Y-1646242D01*
X944128Y-1853303D01*
X1045147Y-1924201D01*
X1041694Y-1866432D01*
X926356Y-1687495D01*
X829753Y-1561618D01*
X563519Y-1227667D01*
X941131Y-1587500D01*
X1155276Y-1777600D01*
X1330205Y-1908013D01*
X1415163Y-1947334D01*
X1510721Y-2017625D01*
X1540028Y-2095033D01*
X1578220Y-2160183D01*
X1660949Y-2104493D01*
X1786801Y-1946866D01*
X1937574Y-1725972D01*
X2116689Y-1438971D01*
X2202116Y-1294269D01*
X2018352Y-1294269D01*
X1997752Y-1341585D01*
X1912501Y-1432479D01*
X1863491Y-1413833D01*
X1862667Y-1401997D01*
X1922804Y-1330384D01*
X1960415Y-1304249D01*
X2018352Y-1294269D01*
X2202116Y-1294269D01*
X2305052Y-1119911D01*
X2349892Y-1040269D01*
X2187686Y-1040269D01*
X2167085Y-1087585D01*
X2081835Y-1178479D01*
X2032824Y-1159833D01*
X2032000Y-1147997D01*
X2092137Y-1076384D01*
X2129749Y-1050249D01*
X2187686Y-1040269D01*
X2349892Y-1040269D01*
X2483571Y-802842D01*
X2633152Y-521813D01*
X2734704Y-310872D01*
X2769133Y-204068D01*
X2767026Y-198804D01*
X2700142Y-243105D01*
X2549223Y-393874D01*
X2337567Y-626610D01*
X2120222Y-878991D01*
X1805181Y-1235547D01*
X1570914Y-1461979D01*
X1422637Y-1553462D01*
X1391801Y-1552623D01*
X1283848Y-1458002D01*
X1310787Y-1300226D01*
X1392540Y-1185334D01*
X576578Y-1185334D01*
X494920Y-1129693D01*
X381000Y-1016000D01*
X283223Y-893350D01*
X270089Y-846667D01*
X351747Y-902307D01*
X465667Y-1016000D01*
X563444Y-1138650D01*
X576578Y-1185334D01*
X1392540Y-1185334D01*
X1476135Y-1067854D01*
X1574137Y-959578D01*
X1751494Y-754203D01*
X1818677Y-616336D01*
X1794607Y-503908D01*
X1785803Y-489032D01*
X1710470Y-283758D01*
X1693333Y-140307D01*
X1680830Y-35265D01*
X1619317Y30570D01*
X1472791Y72394D01*
X1205247Y105407D01*
X1083779Y117002D01*
X699242Y172056D01*
X424149Y251642D01*
X321779Y311616D01*
X213566Y394989D01*
X174340Y350494D01*
G36*
X5165397Y-336455D02*
X5109352Y-524955D01*
X5107469Y-659545D01*
X5178067Y-793981D01*
X5339462Y-982019D01*
X5412405Y-1061347D01*
X5608226Y-1268790D01*
X5720957Y-1363947D01*
X5780308Y-1360828D01*
X5815989Y-1273442D01*
X5821103Y-1254059D01*
X5885321Y-1080582D01*
X6004241Y-816501D01*
X6146936Y-529167D01*
X6422120Y0D01*
X5276437Y0D01*
X5165397Y-336455D01*
X5165397Y-336455D01*
G37*
X5165397Y-336455D02*
X5109352Y-524955D01*
X5107469Y-659545D01*
X5178067Y-793981D01*
X5339462Y-982019D01*
X5412405Y-1061347D01*
X5608226Y-1268790D01*
X5720957Y-1363947D01*
X5780308Y-1360828D01*
X5815989Y-1273442D01*
X5821103Y-1254059D01*
X5885321Y-1080582D01*
X6004241Y-816501D01*
X6146936Y-529167D01*
X6422120Y0D01*
X5276437Y0D01*
X5165397Y-336455D01*
G36*
X4167897Y-359769D02*
X4195229Y-524966D01*
X4304747Y-721896D01*
X4311804Y-731021D01*
X4427078Y-852752D01*
X4485532Y-865927D01*
X4487333Y-853880D01*
X4450063Y-716539D01*
X4358798Y-512146D01*
X4343426Y-482629D01*
X4244276Y-320441D01*
X4188549Y-303311D01*
X4167897Y-359769D01*
X4167897Y-359769D01*
G37*
X4167897Y-359769D02*
X4195229Y-524966D01*
X4304747Y-721896D01*
X4311804Y-731021D01*
X4427078Y-852752D01*
X4485532Y-865927D01*
X4487333Y-853880D01*
X4450063Y-716539D01*
X4358798Y-512146D01*
X4343426Y-482629D01*
X4244276Y-320441D01*
X4188549Y-303311D01*
X4167897Y-359769D01*
G36*
X3844654Y-529790D02*
X3867468Y-606458D01*
X3934954Y-675635D01*
X4041412Y-730236D01*
X4064000Y-692697D01*
X4011098Y-581778D01*
X3905985Y-516552D01*
X3844654Y-529790D01*
X3844654Y-529790D01*
G37*
X3844654Y-529790D02*
X3867468Y-606458D01*
X3934954Y-675635D01*
X4041412Y-730236D01*
X4064000Y-692697D01*
X4011098Y-581778D01*
X3905985Y-516552D01*
X3844654Y-529790D01*
G36*
X3346290Y370596D02*
X3152801Y228066D01*
X3051584Y32567D01*
X3048000Y-10144D01*
X3119912Y-181231D01*
X3296344Y-293041D01*
X3518344Y-330458D01*
X3726959Y-278365D01*
X3814198Y-206608D01*
X3879243Y-13977D01*
X3827909Y198728D01*
X3687774Y362415D01*
X3568481Y408970D01*
X3346290Y370596D01*
X3346290Y370596D01*
G37*
X3346290Y370596D02*
X3152801Y228066D01*
X3051584Y32567D01*
X3048000Y-10144D01*
X3119912Y-181231D01*
X3296344Y-293041D01*
X3518344Y-330458D01*
X3726959Y-278365D01*
X3814198Y-206608D01*
X3879243Y-13977D01*
X3827909Y198728D01*
X3687774Y362415D01*
X3568481Y408970D01*
X3346290Y370596D01*
G36*
X2950480Y869451D02*
X2921000Y846666D01*
X2812416Y681628D01*
X2794000Y586136D01*
X2733524Y460935D01*
X2535059Y383034D01*
X2493739Y374677D01*
X2301860Y330838D01*
X2251285Y278375D01*
X2315909Y183218D01*
X2332700Y164509D01*
X2419333Y14517D01*
X2416297Y-79332D01*
X2389782Y-167267D01*
X2470394Y-155760D01*
X2636575Y-55433D01*
X2866766Y123093D01*
X2921000Y169333D01*
X3235133Y401673D01*
X3496716Y492601D01*
X3739737Y446256D01*
X3963893Y296333D01*
X4168354Y137457D01*
X4277612Y93213D01*
X4314418Y156740D01*
X4314915Y190500D01*
X4250519Y301277D01*
X4091177Y459573D01*
X3997415Y535654D01*
X3735389Y698371D01*
X3492118Y750616D01*
X3372017Y745705D01*
X3171933Y737265D01*
X3068567Y753268D01*
X3064543Y760384D01*
X3045232Y890353D01*
X2950480Y869451D01*
X2950480Y869451D01*
G37*
X2950480Y869451D02*
X2921000Y846666D01*
X2812416Y681628D01*
X2794000Y586136D01*
X2733524Y460935D01*
X2535059Y383034D01*
X2493739Y374677D01*
X2301860Y330838D01*
X2251285Y278375D01*
X2315909Y183218D01*
X2332700Y164509D01*
X2419333Y14517D01*
X2416297Y-79332D01*
X2389782Y-167267D01*
X2470394Y-155760D01*
X2636575Y-55433D01*
X2866766Y123093D01*
X2921000Y169333D01*
X3235133Y401673D01*
X3496716Y492601D01*
X3739737Y446256D01*
X3963893Y296333D01*
X4168354Y137457D01*
X4277612Y93213D01*
X4314418Y156740D01*
X4314915Y190500D01*
X4250519Y301277D01*
X4091177Y459573D01*
X3997415Y535654D01*
X3735389Y698371D01*
X3492118Y750616D01*
X3372017Y745705D01*
X3171933Y737265D01*
X3068567Y753268D01*
X3064543Y760384D01*
X3045232Y890353D01*
X2950480Y869451D01*
G36*
X678994Y896641D02*
X677333Y849645D01*
X745533Y678266D01*
X841101Y595645D01*
X1012677Y518853D01*
X1061721Y548957D01*
X996972Y698163D01*
X960199Y762000D01*
X819111Y959052D01*
X722588Y1004797D01*
X678994Y896641D01*
X678994Y896641D01*
G37*
X678994Y896641D02*
X677333Y849645D01*
X745533Y678266D01*
X841101Y595645D01*
X1012677Y518853D01*
X1061721Y548957D01*
X996972Y698163D01*
X960199Y762000D01*
X819111Y959052D01*
X722588Y1004797D01*
X678994Y896641D01*
G36*
X1725120Y2754012D02*
X1255854Y2617965D01*
X857335Y2350474D01*
X568656Y1978249D01*
X557077Y1955932D01*
X502231Y1785421D01*
X453616Y1527619D01*
X415356Y1228073D01*
X391570Y932329D01*
X386382Y685936D01*
X403913Y534439D01*
X426045Y508000D01*
X465146Y585437D01*
X508498Y789802D01*
X547506Y1079181D01*
X551906Y1121833D01*
X590447Y1448430D01*
X645542Y1668964D01*
X745999Y1846259D01*
X920626Y2043141D01*
X1020942Y2144705D01*
X1428886Y2553743D01*
X2069329Y2525705D01*
X2388591Y2521204D01*
X2603586Y2537624D01*
X2683749Y2572409D01*
X2683094Y2577041D01*
X2566079Y2682167D01*
X2324856Y2749901D01*
X2001957Y2772388D01*
X1725120Y2754012D01*
X1725120Y2754012D01*
G37*
X1725120Y2754012D02*
X1255854Y2617965D01*
X857335Y2350474D01*
X568656Y1978249D01*
X557077Y1955932D01*
X502231Y1785421D01*
X453616Y1527619D01*
X415356Y1228073D01*
X391570Y932329D01*
X386382Y685936D01*
X403913Y534439D01*
X426045Y508000D01*
X465146Y585437D01*
X508498Y789802D01*
X547506Y1079181D01*
X551906Y1121833D01*
X590447Y1448430D01*
X645542Y1668964D01*
X745999Y1846259D01*
X920626Y2043141D01*
X1020942Y2144705D01*
X1428886Y2553743D01*
X2069329Y2525705D01*
X2388591Y2521204D01*
X2603586Y2537624D01*
X2683749Y2572409D01*
X2683094Y2577041D01*
X2566079Y2682167D01*
X2324856Y2749901D01*
X2001957Y2772388D01*
X1725120Y2754012D01*
G36*
X3822245Y1219715D02*
X3886728Y1077655D01*
X4011044Y1016000D01*
X4087084Y1043867D01*
X4064942Y1156137D01*
X4034868Y1223419D01*
X3939483Y1353940D01*
X3862258Y1356110D01*
X3822245Y1219715D01*
X3822245Y1219715D01*
G37*
X3822245Y1219715D02*
X3886728Y1077655D01*
X4011044Y1016000D01*
X4087084Y1043867D01*
X4064942Y1156137D01*
X4034868Y1223419D01*
X3939483Y1353940D01*
X3862258Y1356110D01*
X3822245Y1219715D01*
G36*
X2983534Y1299798D02*
X2963333Y1270000D01*
X2884551Y1094793D01*
X2934980Y1018620D01*
X2963333Y1016000D01*
X3028913Y1087708D01*
X3046704Y1206500D01*
X3033336Y1330214D01*
X2983534Y1299798D01*
X2983534Y1299798D01*
G37*
X2983534Y1299798D02*
X2963333Y1270000D01*
X2884551Y1094793D01*
X2934980Y1018620D01*
X2963333Y1016000D01*
X3028913Y1087708D01*
X3046704Y1206500D01*
X3033336Y1330214D01*
X2983534Y1299798D01*
G36*
X3590369Y1652287D02*
X3598333Y1608666D01*
X3706576Y1527229D01*
X3730330Y1524000D01*
X3807720Y1588579D01*
X3810000Y1608666D01*
X3741085Y1682971D01*
X3678003Y1693333D01*
X3590369Y1652287D01*
X3590369Y1652287D01*
G37*
X3590369Y1652287D02*
X3598333Y1608666D01*
X3706576Y1527229D01*
X3730330Y1524000D01*
X3807720Y1588579D01*
X3810000Y1608666D01*
X3741085Y1682971D01*
X3678003Y1693333D01*
X3590369Y1652287D01*
G36*
X3148821Y1649129D02*
X3132667Y1608666D01*
X3193434Y1526423D01*
X3212337Y1524000D01*
X3327004Y1585544D01*
X3344333Y1608666D01*
X3325140Y1681150D01*
X3264664Y1693333D01*
X3148821Y1649129D01*
X3148821Y1649129D01*
G37*
X3148821Y1649129D02*
X3132667Y1608666D01*
X3193434Y1526423D01*
X3212337Y1524000D01*
X3327004Y1585544D01*
X3344333Y1608666D01*
X3325140Y1681150D01*
X3264664Y1693333D01*
X3148821Y1649129D01*
G36*
X1405078Y2343149D02*
X1304934Y2256465D01*
X1184430Y2094794D01*
X1079273Y1915841D01*
X1025172Y1777311D01*
X1030924Y1738505D01*
X1098407Y1780643D01*
X1239629Y1914503D01*
X1334131Y2013853D01*
X1513166Y2230598D01*
X1561623Y2349262D01*
X1478816Y2366666D01*
X1405078Y2343149D01*
X1405078Y2343149D01*
G37*
X1405078Y2343149D02*
X1304934Y2256465D01*
X1184430Y2094794D01*
X1079273Y1915841D01*
X1025172Y1777311D01*
X1030924Y1738505D01*
X1098407Y1780643D01*
X1239629Y1914503D01*
X1334131Y2013853D01*
X1513166Y2230598D01*
X1561623Y2349262D01*
X1478816Y2366666D01*
X1405078Y2343149D01*
G36*
X3205051Y1930721D02*
X3066683Y1888635D01*
X3048000Y1862666D01*
X3123039Y1809324D01*
X3310179Y1779969D01*
X3381670Y1778000D01*
X3607115Y1797681D01*
X3751619Y1846564D01*
X3767667Y1862666D01*
X3727505Y1916467D01*
X3543327Y1944625D01*
X3433997Y1947333D01*
X3205051Y1930721D01*
X3205051Y1930721D01*
G37*
X3205051Y1930721D02*
X3066683Y1888635D01*
X3048000Y1862666D01*
X3123039Y1809324D01*
X3310179Y1779969D01*
X3381670Y1778000D01*
X3607115Y1797681D01*
X3751619Y1846564D01*
X3767667Y1862666D01*
X3727505Y1916467D01*
X3543327Y1944625D01*
X3433997Y1947333D01*
X3205051Y1930721D01*
G36*
X4763087Y2354628D02*
X4703651Y2340897D01*
X4789318Y2312085D01*
X4879791Y2290012D01*
X5138379Y2193746D01*
X5394475Y2049196D01*
X5400105Y2045217D01*
X5571446Y1934141D01*
X5658648Y1922975D01*
X5708141Y2002323D01*
X5742394Y2129537D01*
X5738160Y2159650D01*
X5464650Y2295995D01*
X5102790Y2359977D01*
X4979733Y2362000D01*
X4763087Y2354628D01*
X4763087Y2354628D01*
G37*
X4763087Y2354628D02*
X4703651Y2340897D01*
X4789318Y2312085D01*
X4879791Y2290012D01*
X5138379Y2193746D01*
X5394475Y2049196D01*
X5400105Y2045217D01*
X5571446Y1934141D01*
X5658648Y1922975D01*
X5708141Y2002323D01*
X5742394Y2129537D01*
X5738160Y2159650D01*
X5464650Y2295995D01*
X5102790Y2359977D01*
X4979733Y2362000D01*
X4763087Y2354628D01*
G36*
X3237939Y2247760D02*
X3096039Y2188687D01*
X3075712Y2159000D01*
X3134765Y2108723D01*
X3323554Y2078914D01*
X3464134Y2074333D01*
X3707802Y2082880D01*
X3809018Y2114463D01*
X3794074Y2177998D01*
X3788880Y2184448D01*
X3656006Y2248197D01*
X3448476Y2268449D01*
X3237939Y2247760D01*
X3237939Y2247760D01*
G37*
X3237939Y2247760D02*
X3096039Y2188687D01*
X3075712Y2159000D01*
X3134765Y2108723D01*
X3323554Y2078914D01*
X3464134Y2074333D01*
X3707802Y2082880D01*
X3809018Y2114463D01*
X3794074Y2177998D01*
X3788880Y2184448D01*
X3656006Y2248197D01*
X3448476Y2268449D01*
X3237939Y2247760D01*
G36*
X3577167Y5765227D02*
X3415451Y5690647D01*
X3330988Y5543021D01*
X3296819Y5370382D01*
X3225507Y5069390D01*
X3116100Y4785792D01*
X3106319Y4766704D01*
X3028212Y4554963D01*
X2982470Y4258861D01*
X2964196Y3841749D01*
X2963333Y3697079D01*
X2965790Y3324168D01*
X2978226Y3086690D01*
X3008235Y2950763D01*
X3063415Y2882503D01*
X3151363Y2848029D01*
X3153833Y2847364D01*
X3453177Y2806848D01*
X3758208Y2854618D01*
X3838511Y2890864D01*
X3880619Y2972490D01*
X3890326Y3136732D01*
X3873426Y3420828D01*
X3864042Y3534904D01*
X3839063Y3924607D01*
X3820201Y4398263D01*
X3810603Y4870518D01*
X3810000Y5000785D01*
X3810000Y5827355D01*
X3577167Y5765227D01*
X3577167Y5765227D01*
G37*
X3577167Y5765227D02*
X3415451Y5690647D01*
X3330988Y5543021D01*
X3296819Y5370382D01*
X3225507Y5069390D01*
X3116100Y4785792D01*
X3106319Y4766704D01*
X3028212Y4554963D01*
X2982470Y4258861D01*
X2964196Y3841749D01*
X2963333Y3697079D01*
X2965790Y3324168D01*
X2978226Y3086690D01*
X3008235Y2950763D01*
X3063415Y2882503D01*
X3151363Y2848029D01*
X3153833Y2847364D01*
X3453177Y2806848D01*
X3758208Y2854618D01*
X3838511Y2890864D01*
X3880619Y2972490D01*
X3890326Y3136732D01*
X3873426Y3420828D01*
X3864042Y3534904D01*
X3839063Y3924607D01*
X3820201Y4398263D01*
X3810603Y4870518D01*
X3810000Y5000785D01*
X3810000Y5827355D01*
X3577167Y5765227D01*
G36*
X3062756Y6751821D02*
X3067113Y6506306D01*
X3098168Y6223000D01*
X3203230Y6469620D01*
X3261787Y6696564D01*
X3221891Y6802642D01*
X3115849Y6853947D01*
X3062756Y6751821D01*
X3062756Y6751821D01*
G37*
X3062756Y6751821D02*
X3067113Y6506306D01*
X3098168Y6223000D01*
X3203230Y6469620D01*
X3261787Y6696564D01*
X3221891Y6802642D01*
X3115849Y6853947D01*
X3062756Y6751821D01*
G36*
X11404708Y9538541D02*
X11933835Y9496708D01*
X12487258Y9384039D01*
X13040755Y9209615D01*
X13570107Y8982512D01*
X14051089Y8711811D01*
X14459483Y8406593D01*
X14485036Y8383891D01*
X14740103Y8154445D01*
X15015245Y8301156D01*
X15250570Y8442283D01*
X15505938Y8620950D01*
X15756164Y8817066D01*
X15976063Y9010545D01*
X16140452Y9181297D01*
X16177538Y9228291D01*
X16326942Y9432450D01*
X16142571Y9344321D01*
X15861958Y9240080D01*
X15621247Y9222649D01*
X15403278Y9295756D01*
X15190890Y9463129D01*
X15090156Y9573022D01*
X14935759Y9786194D01*
X14824599Y10021090D01*
X14751622Y10296937D01*
X14711770Y10632965D01*
X14699986Y11048400D01*
X14700001Y11056660D01*
X14742101Y11710893D01*
X14865449Y12304704D01*
X15069939Y12837799D01*
X15355463Y13309880D01*
X15621381Y13622350D01*
X15788427Y13789204D01*
X15912796Y13898444D01*
X16019942Y13967820D01*
X16135326Y14015080D01*
X16221793Y14040956D01*
X16373203Y14087211D01*
X16445451Y14124859D01*
X16458530Y14167429D01*
X16449130Y14194787D01*
X16374020Y14310558D01*
X16239043Y14470954D01*
X16063404Y14656797D01*
X15866304Y14848912D01*
X15666949Y15028120D01*
X15484540Y15175247D01*
X15423890Y15218600D01*
X14872714Y15536718D01*
X14291994Y15758812D01*
X13677547Y15886081D01*
X13025196Y15919722D01*
X12982232Y15918721D01*
X12501423Y15885069D01*
X12078418Y15807261D01*
X11675861Y15676735D01*
X11400170Y15556090D01*
X10828624Y15231005D01*
X10332466Y14838627D01*
X10098399Y14583362D01*
X10296466Y14385295D01*
X10702706Y14735157D01*
X11127851Y14986640D01*
X11576735Y15141984D01*
X12054197Y15203432D01*
X12062159Y15203666D01*
X12492200Y15174055D01*
X12867419Y15059006D01*
X13189521Y14857506D01*
X13460212Y14568537D01*
X13647736Y14260208D01*
X13746170Y13964725D01*
X13780722Y13615762D01*
X13753931Y13236721D01*
X13668339Y12851002D01*
X13526488Y12482006D01*
X13436253Y12312768D01*
X13271518Y12077664D01*
X13052233Y11824096D01*
X12806338Y11580242D01*
X12561774Y11374276D01*
X12390860Y11258599D01*
X11965129Y11056484D01*
X11540920Y10938773D01*
X11128751Y10902946D01*
X10739131Y10946484D01*
X10382576Y11066866D01*
X10069597Y11261572D01*
X9810709Y11528083D01*
X9616424Y11863877D01*
X9589682Y11930018D01*
X9487325Y12338225D01*
X9479589Y12763553D01*
X9563384Y13195271D01*
X9735622Y13622652D01*
X9993216Y14034966D01*
X10296466Y14385295D01*
X10098399Y14583362D01*
X9913748Y14381985D01*
X9574530Y13864106D01*
X9316864Y13288018D01*
X9142805Y12656749D01*
X9065325Y12116133D01*
X9048960Y11870584D01*
X9058061Y11701737D01*
X9101420Y11586072D01*
X9187834Y11500069D01*
X9325406Y11420556D01*
X9500187Y11307545D01*
X9717470Y11129897D01*
X9959905Y10905077D01*
X10210146Y10650546D01*
X10450842Y10383770D01*
X10664645Y10122210D01*
X10798299Y9937920D01*
X11066628Y9540792D01*
X11404708Y9538541D01*
X11404708Y9538541D01*
G37*
X11404708Y9538541D02*
X11933835Y9496708D01*
X12487258Y9384039D01*
X13040755Y9209615D01*
X13570107Y8982512D01*
X14051089Y8711811D01*
X14459483Y8406593D01*
X14485036Y8383891D01*
X14740103Y8154445D01*
X15015245Y8301156D01*
X15250570Y8442283D01*
X15505938Y8620950D01*
X15756164Y8817066D01*
X15976063Y9010545D01*
X16140452Y9181297D01*
X16177538Y9228291D01*
X16326942Y9432450D01*
X16142571Y9344321D01*
X15861958Y9240080D01*
X15621247Y9222649D01*
X15403278Y9295756D01*
X15190890Y9463129D01*
X15090156Y9573022D01*
X14935759Y9786194D01*
X14824599Y10021090D01*
X14751622Y10296937D01*
X14711770Y10632965D01*
X14699986Y11048400D01*
X14700001Y11056660D01*
X14742101Y11710893D01*
X14865449Y12304704D01*
X15069939Y12837799D01*
X15355463Y13309880D01*
X15621381Y13622350D01*
X15788427Y13789204D01*
X15912796Y13898444D01*
X16019942Y13967820D01*
X16135326Y14015080D01*
X16221793Y14040956D01*
X16373203Y14087211D01*
X16445451Y14124859D01*
X16458530Y14167429D01*
X16449130Y14194787D01*
X16374020Y14310558D01*
X16239043Y14470954D01*
X16063404Y14656797D01*
X15866304Y14848912D01*
X15666949Y15028120D01*
X15484540Y15175247D01*
X15423890Y15218600D01*
X14872714Y15536718D01*
X14291994Y15758812D01*
X13677547Y15886081D01*
X13025196Y15919722D01*
X12982232Y15918721D01*
X12501423Y15885069D01*
X12078418Y15807261D01*
X11675861Y15676735D01*
X11400170Y15556090D01*
X10828624Y15231005D01*
X10332466Y14838627D01*
X10098399Y14583362D01*
X10296466Y14385295D01*
X10702706Y14735157D01*
X11127851Y14986640D01*
X11576735Y15141984D01*
X12054197Y15203432D01*
X12062159Y15203666D01*
X12492200Y15174055D01*
X12867419Y15059006D01*
X13189521Y14857506D01*
X13460212Y14568537D01*
X13647736Y14260208D01*
X13746170Y13964725D01*
X13780722Y13615762D01*
X13753931Y13236721D01*
X13668339Y12851002D01*
X13526488Y12482006D01*
X13436253Y12312768D01*
X13271518Y12077664D01*
X13052233Y11824096D01*
X12806338Y11580242D01*
X12561774Y11374276D01*
X12390860Y11258599D01*
X11965129Y11056484D01*
X11540920Y10938773D01*
X11128751Y10902946D01*
X10739131Y10946484D01*
X10382576Y11066866D01*
X10069597Y11261572D01*
X9810709Y11528083D01*
X9616424Y11863877D01*
X9589682Y11930018D01*
X9487325Y12338225D01*
X9479589Y12763553D01*
X9563384Y13195271D01*
X9735622Y13622652D01*
X9993216Y14034966D01*
X10296466Y14385295D01*
X10098399Y14583362D01*
X9913748Y14381985D01*
X9574530Y13864106D01*
X9316864Y13288018D01*
X9142805Y12656749D01*
X9065325Y12116133D01*
X9048960Y11870584D01*
X9058061Y11701737D01*
X9101420Y11586072D01*
X9187834Y11500069D01*
X9325406Y11420556D01*
X9500187Y11307545D01*
X9717470Y11129897D01*
X9959905Y10905077D01*
X10210146Y10650546D01*
X10450842Y10383770D01*
X10664645Y10122210D01*
X10798299Y9937920D01*
X11066628Y9540792D01*
X11404708Y9538541D01*
G36*
X15968354Y9788244D02*
X16177338Y9764041D01*
X16217690Y9770452D01*
X16295634Y9793371D01*
X16349014Y9838309D01*
X16394166Y9929317D01*
X16447429Y10090449D01*
X16457574Y10123617D01*
X16529280Y10328463D01*
X16592682Y10456230D01*
X16641426Y10502942D01*
X16669159Y10464619D01*
X16669528Y10337281D01*
X16659062Y10249803D01*
X16643530Y10080339D01*
X16657706Y10004322D01*
X16698253Y10019120D01*
X16761836Y10122100D01*
X16845120Y10310634D01*
X16892226Y10433762D01*
X17075855Y11068950D01*
X17157979Y11701199D01*
X17138622Y12331483D01*
X17017805Y12960783D01*
X16951772Y13180320D01*
X16880849Y13376883D01*
X16816032Y13490755D01*
X16739246Y13537930D01*
X16632420Y13534398D01*
X16567822Y13520053D01*
X16408622Y13468688D01*
X16273145Y13406499D01*
X16264745Y13401454D01*
X16207092Y13356165D01*
X16184964Y13297136D01*
X16198485Y13199470D01*
X16247782Y13038269D01*
X16266860Y12981746D01*
X16322174Y12789733D01*
X16343455Y12647083D01*
X16329524Y12578420D01*
X16300489Y12556263D01*
X16268482Y12561678D01*
X16221363Y12607710D01*
X16146990Y12707405D01*
X16033225Y12873813D01*
X15977429Y12956824D01*
X15926052Y13024878D01*
X15885435Y13028505D01*
X15829761Y12959060D01*
X15787590Y12893257D01*
X15598518Y12535303D01*
X15446875Y12130928D01*
X15383798Y11892508D01*
X15342998Y11676623D01*
X15313083Y11459944D01*
X15296301Y11267859D01*
X15294903Y11125757D01*
X15310035Y11060014D01*
X15369152Y11058836D01*
X15494386Y11083334D01*
X15613962Y11115397D01*
X15774357Y11157421D01*
X15864494Y11162024D01*
X15909252Y11127442D01*
X15922805Y11093534D01*
X15944062Y10989637D01*
X15943774Y10945574D01*
X15899107Y10895561D01*
X15795939Y10811766D01*
X15661838Y10714400D01*
X15524368Y10623676D01*
X15431523Y10569995D01*
X15392537Y10512184D01*
X15413450Y10398427D01*
X15441744Y10326287D01*
X15583419Y10081643D01*
X15764668Y9898204D01*
X15968354Y9788244D01*
X15968354Y9788244D01*
G37*
X15968354Y9788244D02*
X16177338Y9764041D01*
X16217690Y9770452D01*
X16295634Y9793371D01*
X16349014Y9838309D01*
X16394166Y9929317D01*
X16447429Y10090449D01*
X16457574Y10123617D01*
X16529280Y10328463D01*
X16592682Y10456230D01*
X16641426Y10502942D01*
X16669159Y10464619D01*
X16669528Y10337281D01*
X16659062Y10249803D01*
X16643530Y10080339D01*
X16657706Y10004322D01*
X16698253Y10019120D01*
X16761836Y10122100D01*
X16845120Y10310634D01*
X16892226Y10433762D01*
X17075855Y11068950D01*
X17157979Y11701199D01*
X17138622Y12331483D01*
X17017805Y12960783D01*
X16951772Y13180320D01*
X16880849Y13376883D01*
X16816032Y13490755D01*
X16739246Y13537930D01*
X16632420Y13534398D01*
X16567822Y13520053D01*
X16408622Y13468688D01*
X16273145Y13406499D01*
X16264745Y13401454D01*
X16207092Y13356165D01*
X16184964Y13297136D01*
X16198485Y13199470D01*
X16247782Y13038269D01*
X16266860Y12981746D01*
X16322174Y12789733D01*
X16343455Y12647083D01*
X16329524Y12578420D01*
X16300489Y12556263D01*
X16268482Y12561678D01*
X16221363Y12607710D01*
X16146990Y12707405D01*
X16033225Y12873813D01*
X15977429Y12956824D01*
X15926052Y13024878D01*
X15885435Y13028505D01*
X15829761Y12959060D01*
X15787590Y12893257D01*
X15598518Y12535303D01*
X15446875Y12130928D01*
X15383798Y11892508D01*
X15342998Y11676623D01*
X15313083Y11459944D01*
X15296301Y11267859D01*
X15294903Y11125757D01*
X15310035Y11060014D01*
X15369152Y11058836D01*
X15494386Y11083334D01*
X15613962Y11115397D01*
X15774357Y11157421D01*
X15864494Y11162024D01*
X15909252Y11127442D01*
X15922805Y11093534D01*
X15944062Y10989637D01*
X15943774Y10945574D01*
X15899107Y10895561D01*
X15795939Y10811766D01*
X15661838Y10714400D01*
X15524368Y10623676D01*
X15431523Y10569995D01*
X15392537Y10512184D01*
X15413450Y10398427D01*
X15441744Y10326287D01*
X15583419Y10081643D01*
X15764668Y9898204D01*
X15968354Y9788244D01*
G36*
X11716719Y8075407D02*
X11902281Y8016215D01*
X12099905Y7963192D01*
X12324703Y7916990D01*
X12588284Y7882806D01*
X12873068Y7860568D01*
X13161478Y7850202D01*
X13435936Y7851636D01*
X13678863Y7864798D01*
X13872681Y7889614D01*
X13999815Y7926011D01*
X14042813Y7971224D01*
X13997695Y8051215D01*
X13864365Y8173126D01*
X13645859Y8334199D01*
X13636418Y8340710D01*
X13453601Y8457669D01*
X13255828Y8571637D01*
X13200607Y8600719D01*
X13070339Y8662817D01*
X12980979Y8678779D01*
X12893256Y8643328D01*
X12767896Y8551189D01*
X12754524Y8540789D01*
X12609940Y8439153D01*
X12509491Y8400454D01*
X12426739Y8414539D01*
X12426275Y8414747D01*
X12361200Y8463239D01*
X12352512Y8544760D01*
X12378846Y8647419D01*
X12407213Y8775945D01*
X12404681Y8860918D01*
X12399054Y8870210D01*
X12321406Y8905499D01*
X12173663Y8941904D01*
X11982982Y8975870D01*
X11776521Y9003846D01*
X11581433Y9022281D01*
X11424877Y9027622D01*
X11334010Y9016316D01*
X11324962Y9010700D01*
X11326251Y8951325D01*
X11361850Y8873510D01*
X11404709Y8763297D01*
X11445575Y8595670D01*
X11466538Y8470385D01*
X11491151Y8319178D01*
X11529093Y8212524D01*
X11598302Y8136056D01*
X11716719Y8075407D01*
X11716719Y8075407D01*
G37*
X11716719Y8075407D02*
X11902281Y8016215D01*
X12099905Y7963192D01*
X12324703Y7916990D01*
X12588284Y7882806D01*
X12873068Y7860568D01*
X13161478Y7850202D01*
X13435936Y7851636D01*
X13678863Y7864798D01*
X13872681Y7889614D01*
X13999815Y7926011D01*
X14042813Y7971224D01*
X13997695Y8051215D01*
X13864365Y8173126D01*
X13645859Y8334199D01*
X13636418Y8340710D01*
X13453601Y8457669D01*
X13255828Y8571637D01*
X13200607Y8600719D01*
X13070339Y8662817D01*
X12980979Y8678779D01*
X12893256Y8643328D01*
X12767896Y8551189D01*
X12754524Y8540789D01*
X12609940Y8439153D01*
X12509491Y8400454D01*
X12426739Y8414539D01*
X12426275Y8414747D01*
X12361200Y8463239D01*
X12352512Y8544760D01*
X12378846Y8647419D01*
X12407213Y8775945D01*
X12404681Y8860918D01*
X12399054Y8870210D01*
X12321406Y8905499D01*
X12173663Y8941904D01*
X11982982Y8975870D01*
X11776521Y9003846D01*
X11581433Y9022281D01*
X11424877Y9027622D01*
X11334010Y9016316D01*
X11324962Y9010700D01*
X11326251Y8951325D01*
X11361850Y8873510D01*
X11404709Y8763297D01*
X11445575Y8595670D01*
X11466538Y8470385D01*
X11491151Y8319178D01*
X11529093Y8212524D01*
X11598302Y8136056D01*
X11716719Y8075407D01*
G36*
X11199338Y7735603D02*
X11221818Y7822449D01*
X11204848Y7984056D01*
X11153780Y8203999D01*
X11073963Y8465850D01*
X10970748Y8753182D01*
X10849485Y9049568D01*
X10715527Y9338581D01*
X10613518Y9534151D01*
X10362799Y9946768D01*
X10066409Y10365581D01*
X9742129Y10769417D01*
X9407738Y11137107D01*
X9081016Y11447477D01*
X8856479Y11626470D01*
X8721803Y11707362D01*
X8603477Y11751730D01*
X8527270Y11752165D01*
X8512532Y11725319D01*
X8550685Y11682127D01*
X8649593Y11596333D01*
X8788455Y11485911D01*
X8799038Y11477797D01*
X9198210Y11126967D01*
X9593362Y10694573D01*
X9971378Y10200248D01*
X10319143Y9663620D01*
X10623542Y9104321D01*
X10871459Y8541980D01*
X10993082Y8193886D01*
X11076012Y7945378D01*
X11141006Y7790627D01*
X11186978Y7732045D01*
X11199338Y7735603D01*
X11199338Y7735603D01*
G37*
X11199338Y7735603D02*
X11221818Y7822449D01*
X11204848Y7984056D01*
X11153780Y8203999D01*
X11073963Y8465850D01*
X10970748Y8753182D01*
X10849485Y9049568D01*
X10715527Y9338581D01*
X10613518Y9534151D01*
X10362799Y9946768D01*
X10066409Y10365581D01*
X9742129Y10769417D01*
X9407738Y11137107D01*
X9081016Y11447477D01*
X8856479Y11626470D01*
X8721803Y11707362D01*
X8603477Y11751730D01*
X8527270Y11752165D01*
X8512532Y11725319D01*
X8550685Y11682127D01*
X8649593Y11596333D01*
X8788455Y11485911D01*
X8799038Y11477797D01*
X9198210Y11126967D01*
X9593362Y10694573D01*
X9971378Y10200248D01*
X10319143Y9663620D01*
X10623542Y9104321D01*
X10871459Y8541980D01*
X10993082Y8193886D01*
X11076012Y7945378D01*
X11141006Y7790627D01*
X11186978Y7732045D01*
X11199338Y7735603D01*
G36*
X8701867Y7109932D02*
X8713426Y7105798D01*
X8890114Y7042824D01*
X8882746Y7264123D01*
X8855054Y7457237D01*
X8795692Y7657616D01*
X8778494Y7698686D01*
X8701727Y7867305D01*
X8629850Y8024618D01*
X8613785Y8059653D01*
X8574735Y8158444D01*
X8589856Y8189306D01*
X8645757Y8179179D01*
X8739967Y8108377D01*
X8839664Y7962195D01*
X8934064Y7765542D01*
X9012376Y7543327D01*
X9063815Y7320456D01*
X9077940Y7181241D01*
X9084057Y6994265D01*
X9476393Y6994265D01*
X9712769Y7006492D01*
X9951746Y7038505D01*
X10137132Y7082132D01*
X10331968Y7155683D01*
X10536074Y7248441D01*
X10724912Y7347331D01*
X10873939Y7439272D01*
X10958617Y7511186D01*
X10966738Y7524238D01*
X10964597Y7603737D01*
X10930693Y7757214D01*
X10871662Y7964581D01*
X10794139Y8205749D01*
X10704759Y8460633D01*
X10610157Y8709143D01*
X10516968Y8931193D01*
X10465952Y9040407D01*
X10280957Y9400342D01*
X10101660Y9709381D01*
X9910600Y9991791D01*
X9690312Y10271841D01*
X9423334Y10573800D01*
X9169349Y10842321D01*
X8957255Y11060112D01*
X8762288Y11256538D01*
X8598202Y11418033D01*
X8478749Y11531035D01*
X8422616Y11578801D01*
X8333184Y11619058D01*
X8233144Y11601900D01*
X8113642Y11539234D01*
X7853720Y11347758D01*
X7594236Y11094644D01*
X7367506Y10814723D01*
X7230836Y10591548D01*
X8322335Y9500049D01*
X8502415Y9602458D01*
X8705316Y9634943D01*
X8910879Y9602340D01*
X9098941Y9509486D01*
X9249342Y9361216D01*
X9341919Y9162366D01*
X9360493Y9040982D01*
X9361032Y8909358D01*
X9347190Y8860257D01*
X9667932Y8539516D01*
X9793521Y8656999D01*
X9956345Y8724076D01*
X10077324Y8731349D01*
X10253521Y8691199D01*
X10355958Y8590235D01*
X10401066Y8422453D01*
X10378582Y8225347D01*
X10277307Y8056395D01*
X10119752Y7935962D01*
X9928429Y7884416D01*
X9815890Y7893029D01*
X9662143Y7963820D01*
X9576684Y8083778D01*
X9553303Y8232990D01*
X9585789Y8391541D01*
X9667932Y8539516D01*
X9347190Y8860257D01*
X9333415Y8811391D01*
X9260866Y8711118D01*
X9155330Y8601198D01*
X9019922Y8475141D01*
X8915637Y8409247D01*
X8808839Y8385391D01*
X8751422Y8383543D01*
X8513181Y8428227D01*
X8320369Y8549351D01*
X8184675Y8727521D01*
X8117791Y8943341D01*
X8131406Y9177417D01*
X8185238Y9322882D01*
X8322335Y9500049D01*
X7230836Y10591548D01*
X7224003Y10580389D01*
X7118085Y10357542D01*
X7064355Y10203908D01*
X7061042Y10102613D01*
X7106375Y10036783D01*
X7163485Y10003935D01*
X7306724Y9919986D01*
X7476669Y9792461D01*
X7646653Y9644838D01*
X7790006Y9500597D01*
X7880060Y9383218D01*
X7889420Y9364825D01*
X7929634Y9245229D01*
X7912352Y9205735D01*
X7842485Y9246276D01*
X7724943Y9366779D01*
X7724572Y9367205D01*
X7534521Y9561129D01*
X7340899Y9716742D01*
X7167310Y9816555D01*
X7083399Y9842262D01*
X7004455Y9847582D01*
X6971048Y9810984D01*
X6961326Y9704396D01*
X6960684Y9684611D01*
X6963861Y9564487D01*
X7000234Y9508547D01*
X7094644Y9479717D01*
X7098524Y9478906D01*
X7210559Y9421529D01*
X7364091Y9296444D01*
X7544021Y9120318D01*
X7735250Y8909817D01*
X7922678Y8681610D01*
X8091205Y8452365D01*
X8225734Y8238748D01*
X8231727Y8228003D01*
X8368596Y7958352D01*
X8475275Y7703723D01*
X8544779Y7484328D01*
X8570124Y7320381D01*
X8564164Y7265902D01*
X8554877Y7198587D01*
X8592741Y7155220D01*
X8701867Y7109932D01*
X8701867Y7109932D01*
G37*
X8701867Y7109932D02*
X8713426Y7105798D01*
X8890114Y7042824D01*
X8882746Y7264123D01*
X8855054Y7457237D01*
X8795692Y7657616D01*
X8778494Y7698686D01*
X8701727Y7867305D01*
X8629850Y8024618D01*
X8613785Y8059653D01*
X8574735Y8158444D01*
X8589856Y8189306D01*
X8645757Y8179179D01*
X8739967Y8108377D01*
X8839664Y7962195D01*
X8934064Y7765542D01*
X9012376Y7543327D01*
X9063815Y7320456D01*
X9077940Y7181241D01*
X9084057Y6994265D01*
X9476393Y6994265D01*
X9712769Y7006492D01*
X9951746Y7038505D01*
X10137132Y7082132D01*
X10331968Y7155683D01*
X10536074Y7248441D01*
X10724912Y7347331D01*
X10873939Y7439272D01*
X10958617Y7511186D01*
X10966738Y7524238D01*
X10964597Y7603737D01*
X10930693Y7757214D01*
X10871662Y7964581D01*
X10794139Y8205749D01*
X10704759Y8460633D01*
X10610157Y8709143D01*
X10516968Y8931193D01*
X10465952Y9040407D01*
X10280957Y9400342D01*
X10101660Y9709381D01*
X9910600Y9991791D01*
X9690312Y10271841D01*
X9423334Y10573800D01*
X9169349Y10842321D01*
X8957255Y11060112D01*
X8762288Y11256538D01*
X8598202Y11418033D01*
X8478749Y11531035D01*
X8422616Y11578801D01*
X8333184Y11619058D01*
X8233144Y11601900D01*
X8113642Y11539234D01*
X7853720Y11347758D01*
X7594236Y11094644D01*
X7367506Y10814723D01*
X7230836Y10591548D01*
X8322335Y9500049D01*
X8502415Y9602458D01*
X8705316Y9634943D01*
X8910879Y9602340D01*
X9098941Y9509486D01*
X9249342Y9361216D01*
X9341919Y9162366D01*
X9360493Y9040982D01*
X9361032Y8909358D01*
X9347190Y8860257D01*
X9667932Y8539516D01*
X9793521Y8656999D01*
X9956345Y8724076D01*
X10077324Y8731349D01*
X10253521Y8691199D01*
X10355958Y8590235D01*
X10401066Y8422453D01*
X10378582Y8225347D01*
X10277307Y8056395D01*
X10119752Y7935962D01*
X9928429Y7884416D01*
X9815890Y7893029D01*
X9662143Y7963820D01*
X9576684Y8083778D01*
X9553303Y8232990D01*
X9585789Y8391541D01*
X9667932Y8539516D01*
X9347190Y8860257D01*
X9333415Y8811391D01*
X9260866Y8711118D01*
X9155330Y8601198D01*
X9019922Y8475141D01*
X8915637Y8409247D01*
X8808839Y8385391D01*
X8751422Y8383543D01*
X8513181Y8428227D01*
X8320369Y8549351D01*
X8184675Y8727521D01*
X8117791Y8943341D01*
X8131406Y9177417D01*
X8185238Y9322882D01*
X8322335Y9500049D01*
X7230836Y10591548D01*
X7224003Y10580389D01*
X7118085Y10357542D01*
X7064355Y10203908D01*
X7061042Y10102613D01*
X7106375Y10036783D01*
X7163485Y10003935D01*
X7306724Y9919986D01*
X7476669Y9792461D01*
X7646653Y9644838D01*
X7790006Y9500597D01*
X7880060Y9383218D01*
X7889420Y9364825D01*
X7929634Y9245229D01*
X7912352Y9205735D01*
X7842485Y9246276D01*
X7724943Y9366779D01*
X7724572Y9367205D01*
X7534521Y9561129D01*
X7340899Y9716742D01*
X7167310Y9816555D01*
X7083399Y9842262D01*
X7004455Y9847582D01*
X6971048Y9810984D01*
X6961326Y9704396D01*
X6960684Y9684611D01*
X6963861Y9564487D01*
X7000234Y9508547D01*
X7094644Y9479717D01*
X7098524Y9478906D01*
X7210559Y9421529D01*
X7364091Y9296444D01*
X7544021Y9120318D01*
X7735250Y8909817D01*
X7922678Y8681610D01*
X8091205Y8452365D01*
X8225734Y8238748D01*
X8231727Y8228003D01*
X8368596Y7958352D01*
X8475275Y7703723D01*
X8544779Y7484328D01*
X8570124Y7320381D01*
X8564164Y7265902D01*
X8554877Y7198587D01*
X8592741Y7155220D01*
X8701867Y7109932D01*
G36*
X5887392Y6852458D02*
X5937043Y6871522D01*
X6023253Y6916956D01*
X6154805Y6993983D01*
X6340482Y7107832D01*
X6589065Y7263726D01*
X6909336Y7466892D01*
X7115426Y7598251D01*
X7564957Y7885100D01*
X7790387Y7659671D01*
X7916553Y7543979D01*
X8020196Y7467620D01*
X8073041Y7447751D01*
X8101507Y7501270D01*
X8089021Y7623233D01*
X8041027Y7791699D01*
X7962970Y7984722D01*
X7916062Y8080350D01*
X7833208Y8214930D01*
X7713277Y8380075D01*
X7572537Y8556787D01*
X7427255Y8726067D01*
X7293704Y8868915D01*
X7188151Y8966334D01*
X7128969Y8999506D01*
X7061557Y8980293D01*
X7041686Y8914951D01*
X7068823Y8787168D01*
X7117409Y8646696D01*
X7170253Y8490968D01*
X7199432Y8377059D01*
X7200082Y8334512D01*
X7150507Y8295886D01*
X7038355Y8212816D01*
X6883625Y8100044D01*
X6801597Y8040768D01*
X6636904Y7919183D01*
X6509206Y7819407D01*
X6437035Y7756191D01*
X6427556Y7743076D01*
X6465196Y7704531D01*
X6545388Y7708833D01*
X6611814Y7746892D01*
X6682842Y7802606D01*
X6813887Y7892439D01*
X6977997Y7997985D01*
X6996053Y8009231D01*
X7161836Y8109889D01*
X7264020Y8160639D01*
X7324588Y8166324D01*
X7365528Y8131791D01*
X7388652Y8095728D01*
X7439819Y8004654D01*
X7457292Y7964336D01*
X7416917Y7932609D01*
X7304495Y7854225D01*
X7133081Y7738029D01*
X6915728Y7592864D01*
X6665493Y7427573D01*
X6647027Y7415441D01*
X6396882Y7248792D01*
X6181096Y7100488D01*
X6012184Y6979511D01*
X5902662Y6894843D01*
X5865045Y6855467D01*
X5865521Y6854539D01*
X5887392Y6852458D01*
X5887392Y6852458D01*
G37*
X5887392Y6852458D02*
X5937043Y6871522D01*
X6023253Y6916956D01*
X6154805Y6993983D01*
X6340482Y7107832D01*
X6589065Y7263726D01*
X6909336Y7466892D01*
X7115426Y7598251D01*
X7564957Y7885100D01*
X7790387Y7659671D01*
X7916553Y7543979D01*
X8020196Y7467620D01*
X8073041Y7447751D01*
X8101507Y7501270D01*
X8089021Y7623233D01*
X8041027Y7791699D01*
X7962970Y7984722D01*
X7916062Y8080350D01*
X7833208Y8214930D01*
X7713277Y8380075D01*
X7572537Y8556787D01*
X7427255Y8726067D01*
X7293704Y8868915D01*
X7188151Y8966334D01*
X7128969Y8999506D01*
X7061557Y8980293D01*
X7041686Y8914951D01*
X7068823Y8787168D01*
X7117409Y8646696D01*
X7170253Y8490968D01*
X7199432Y8377059D01*
X7200082Y8334512D01*
X7150507Y8295886D01*
X7038355Y8212816D01*
X6883625Y8100044D01*
X6801597Y8040768D01*
X6636904Y7919183D01*
X6509206Y7819407D01*
X6437035Y7756191D01*
X6427556Y7743076D01*
X6465196Y7704531D01*
X6545388Y7708833D01*
X6611814Y7746892D01*
X6682842Y7802606D01*
X6813887Y7892439D01*
X6977997Y7997985D01*
X6996053Y8009231D01*
X7161836Y8109889D01*
X7264020Y8160639D01*
X7324588Y8166324D01*
X7365528Y8131791D01*
X7388652Y8095728D01*
X7439819Y8004654D01*
X7457292Y7964336D01*
X7416917Y7932609D01*
X7304495Y7854225D01*
X7133081Y7738029D01*
X6915728Y7592864D01*
X6665493Y7427573D01*
X6647027Y7415441D01*
X6396882Y7248792D01*
X6181096Y7100488D01*
X6012184Y6979511D01*
X5902662Y6894843D01*
X5865045Y6855467D01*
X5865521Y6854539D01*
X5887392Y6852458D01*
G36*
X10326844Y11732816D02*
X10593967Y11602701D01*
X10769118Y11544666D01*
X10830011Y11856705D01*
X10871140Y12050434D01*
X10908666Y12163620D01*
X10954643Y12216104D01*
X11021137Y12227729D01*
X11054225Y12225566D01*
X11109102Y12203316D01*
X11144880Y12134813D01*
X11169352Y11998741D01*
X11181773Y11876669D01*
X11211878Y11536826D01*
X11403646Y11557245D01*
X11631060Y11615421D01*
X11892703Y11736227D01*
X12159122Y11903131D01*
X12400867Y12099595D01*
X12444179Y12141494D01*
X12573397Y12281670D01*
X12700757Y12437889D01*
X12811234Y12589118D01*
X12889804Y12714319D01*
X12921443Y12792454D01*
X12918222Y12805249D01*
X12867015Y12828986D01*
X12746087Y12877696D01*
X12581007Y12941096D01*
X12571237Y12944774D01*
X12238738Y13069815D01*
X12290271Y13207780D01*
X12324596Y13280266D01*
X12376415Y13320108D01*
X12471446Y13335186D01*
X12635407Y13333381D01*
X12692751Y13331109D01*
X12902295Y13330522D01*
X13027976Y13360210D01*
X13086376Y13435192D01*
X13094080Y13570483D01*
X13081741Y13683350D01*
X12989024Y14049371D01*
X12818706Y14351514D01*
X12572149Y14587406D01*
X12553560Y14600359D01*
X12370949Y14715903D01*
X12239288Y14764873D01*
X12131538Y14745807D01*
X12020656Y14657246D01*
X11938787Y14567153D01*
X11812098Y14431592D01*
X11718375Y14363136D01*
X11633552Y14344804D01*
X11624066Y14345101D01*
X11555995Y14357352D01*
X11532072Y14402040D01*
X11546357Y14504852D01*
X11567209Y14590988D01*
X11627906Y14831012D01*
X11487190Y14801571D01*
X11357794Y14766176D01*
X11184369Y14708677D01*
X11086601Y14672791D01*
X10872562Y14561245D01*
X10633198Y14390126D01*
X10398338Y14185184D01*
X10197815Y13972170D01*
X10073137Y13797951D01*
X9960769Y13602539D01*
X10136449Y13572993D01*
X10283155Y13540033D01*
X10349287Y13492762D01*
X10355687Y13410741D01*
X10346891Y13366629D01*
X10313354Y13289353D01*
X10237661Y13225036D01*
X10094379Y13153228D01*
X10066005Y13140773D01*
X9894732Y13053533D01*
X9800616Y12959520D01*
X9769835Y12830714D01*
X9788569Y12639095D01*
X9796414Y12594219D01*
X9903629Y12243761D01*
X10083129Y11953282D01*
X10326844Y11732816D01*
X10326844Y11732816D01*
G37*
X10326844Y11732816D02*
X10593967Y11602701D01*
X10769118Y11544666D01*
X10830011Y11856705D01*
X10871140Y12050434D01*
X10908666Y12163620D01*
X10954643Y12216104D01*
X11021137Y12227729D01*
X11054225Y12225566D01*
X11109102Y12203316D01*
X11144880Y12134813D01*
X11169352Y11998741D01*
X11181773Y11876669D01*
X11211878Y11536826D01*
X11403646Y11557245D01*
X11631060Y11615421D01*
X11892703Y11736227D01*
X12159122Y11903131D01*
X12400867Y12099595D01*
X12444179Y12141494D01*
X12573397Y12281670D01*
X12700757Y12437889D01*
X12811234Y12589118D01*
X12889804Y12714319D01*
X12921443Y12792454D01*
X12918222Y12805249D01*
X12867015Y12828986D01*
X12746087Y12877696D01*
X12581007Y12941096D01*
X12571237Y12944774D01*
X12238738Y13069815D01*
X12290271Y13207780D01*
X12324596Y13280266D01*
X12376415Y13320108D01*
X12471446Y13335186D01*
X12635407Y13333381D01*
X12692751Y13331109D01*
X12902295Y13330522D01*
X13027976Y13360210D01*
X13086376Y13435192D01*
X13094080Y13570483D01*
X13081741Y13683350D01*
X12989024Y14049371D01*
X12818706Y14351514D01*
X12572149Y14587406D01*
X12553560Y14600359D01*
X12370949Y14715903D01*
X12239288Y14764873D01*
X12131538Y14745807D01*
X12020656Y14657246D01*
X11938787Y14567153D01*
X11812098Y14431592D01*
X11718375Y14363136D01*
X11633552Y14344804D01*
X11624066Y14345101D01*
X11555995Y14357352D01*
X11532072Y14402040D01*
X11546357Y14504852D01*
X11567209Y14590988D01*
X11627906Y14831012D01*
X11487190Y14801571D01*
X11357794Y14766176D01*
X11184369Y14708677D01*
X11086601Y14672791D01*
X10872562Y14561245D01*
X10633198Y14390126D01*
X10398338Y14185184D01*
X10197815Y13972170D01*
X10073137Y13797951D01*
X9960769Y13602539D01*
X10136449Y13572993D01*
X10283155Y13540033D01*
X10349287Y13492762D01*
X10355687Y13410741D01*
X10346891Y13366629D01*
X10313354Y13289353D01*
X10237661Y13225036D01*
X10094379Y13153228D01*
X10066005Y13140773D01*
X9894732Y13053533D01*
X9800616Y12959520D01*
X9769835Y12830714D01*
X9788569Y12639095D01*
X9796414Y12594219D01*
X9903629Y12243761D01*
X10083129Y11953282D01*
X10326844Y11732816D01*
G36*
X9720235Y8214224D02*
X9742768Y8235232D01*
X9754449Y8318422D01*
X9717438Y8367496D01*
X9657455Y8348981D01*
X9636894Y8270577D01*
X9657455Y8235232D01*
X9720235Y8214224D01*
X9720235Y8214224D01*
G37*
X9720235Y8214224D02*
X9742768Y8235232D01*
X9754449Y8318422D01*
X9717438Y8367496D01*
X9657455Y8348981D01*
X9636894Y8270577D01*
X9657455Y8235232D01*
X9720235Y8214224D01*
G36*
X8370740Y8997765D02*
X8455654Y9037435D01*
X8502681Y9148399D01*
X8505116Y9174721D01*
X8498869Y9299580D01*
X8450421Y9349761D01*
X8365506Y9352168D01*
X8273142Y9301236D01*
X8228533Y9197954D01*
X8244478Y9085368D01*
X8273893Y9044058D01*
X8370740Y8997765D01*
X8370740Y8997765D01*
G37*
X8370740Y8997765D02*
X8455654Y9037435D01*
X8502681Y9148399D01*
X8505116Y9174721D01*
X8498869Y9299580D01*
X8450421Y9349761D01*
X8365506Y9352168D01*
X8273142Y9301236D01*
X8228533Y9197954D01*
X8244478Y9085368D01*
X8273893Y9044058D01*
X8370740Y8997765D01*
G36*
X8247354Y8816310D02*
X8267013Y8839902D01*
X8275971Y8939820D01*
X8267013Y8965626D01*
X8223808Y8989219D01*
X8204151Y8965626D01*
X8195191Y8865708D01*
X8204151Y8839902D01*
X8247354Y8816310D01*
X8247354Y8816310D01*
G37*
X8247354Y8816310D02*
X8267013Y8839902D01*
X8275971Y8939820D01*
X8267013Y8965626D01*
X8223808Y8989219D01*
X8204151Y8965626D01*
X8195191Y8865708D01*
X8204151Y8839902D01*
X8247354Y8816310D01*
D12*
X-12160000Y0D03*
D13*
X-12160000Y-11000000D03*
X-12160000Y11000000D03*
D14*
X19304000Y-7620000D03*
D15*
X19304000Y7620000D03*
D16*
X5598000Y11480000D03*
X4318000Y11480000D03*
X3058000Y11480000D03*
X1788000Y11480000D03*
X508000Y11480000D03*
X-762000Y11480000D03*
X-2022000Y11480000D03*
X-3302000Y11480000D03*
X-3302000Y17780000D03*
X-2022000Y17780000D03*
X-762000Y17780000D03*
X508000Y17780000D03*
X1788000Y17780000D03*
X3058000Y17780000D03*
X4318000Y17780000D03*
X5598000Y17780000D03*
D17*
X10850000Y3100000D03*
X10850000Y-3100000D03*
X14550000Y3100000D03*
X14550000Y-3100000D03*
D18*
X-8668000Y-15240000D03*
X-12668000Y-15240000D03*
X-8636000Y15760000D03*
X-12636000Y15760000D03*
D19*
X-11162500Y-15273800D03*
X-4241400Y17094600D03*
X-762000Y10160000D03*
X508000Y10160000D03*
X5598000Y10170000D03*
X-2936500Y14861300D03*
X-2022000Y10170000D03*
X1778000Y10160000D03*
X4318000Y10160000D03*
X3048000Y19558000D03*
X3810000Y16510000D03*
X-508000Y16576000D03*
D20*
X-10414000Y-17272000D02*
X-10414000Y-12746000D01*
X-10414000Y-12746000D02*
X-12160000Y-11000000D01*
X-9906000Y-17780000D02*
X-10414000Y-17272000D01*
X12192000Y-17780000D02*
X-9906000Y-17780000D01*
X16002000Y-13970000D02*
X12192000Y-17780000D01*
X16002000Y-8890000D02*
X16002000Y-13970000D01*
X10850000Y-3738000D02*
X16002000Y-8890000D01*
X10850000Y-3100000D02*
X10850000Y-3738000D01*
X-17018000Y8992000D02*
X-17018000Y-4826000D01*
X-17018000Y-8992000D02*
X-17018000Y-4826000D01*
X-17018000Y-4826000D02*
X-17018000Y-5080000D01*
X-12160000Y-11000000D02*
X-15010000Y-11000000D01*
X-15010000Y-11000000D02*
X-17018000Y-8992000D01*
X-12160000Y11000000D02*
X-15010000Y11000000D01*
X-15010000Y11000000D02*
X-17018000Y8992000D01*
X10850000Y-3100000D02*
X10850000Y3100000D01*
X-8668000Y-15240000D02*
X-8668000Y-3492000D01*
X-8668000Y-3492000D02*
X-12160000Y0D01*
X-3302000Y11480000D02*
X-3302000Y4058000D01*
X-3302000Y4058000D02*
X-7360000Y0D01*
X-7360000Y0D02*
X-12160000Y0D01*
X-12160000Y0D02*
X-12160000Y2064000D01*
X-4363900Y13542200D02*
X-4283700Y13462000D01*
X-4283700Y13462000D02*
X-3302000Y12480300D01*
X-7324000Y15748000D02*
X-6569700Y15748000D01*
X-6569700Y15748000D02*
X-4283700Y13462000D01*
X-8636000Y15760000D02*
X-7336000Y15760000D01*
X-7336000Y15760000D02*
X-7324000Y15748000D01*
X-3302000Y11480000D02*
X-3302000Y12480300D01*
X1788000Y17780000D02*
X1788000Y16779700D01*
X-2511400Y12480300D02*
X1788000Y16779700D01*
X-3302000Y12480300D02*
X-2511400Y12480300D01*
X-12668000Y-15240000D02*
X-11317700Y-15240000D01*
X-11196300Y-15240000D02*
X-11162500Y-15273800D01*
X-11317700Y-15240000D02*
X-11196300Y-15240000D01*
X-3926500Y16779700D02*
X-4241400Y17094600D01*
X-3302000Y16779700D02*
X-3926500Y16779700D01*
X-3302000Y17780000D02*
X-3302000Y16779700D01*
X-830640Y11480000D02*
X-869183Y11518543D01*
X-762000Y11480000D02*
X-762000Y10160000D01*
X508000Y11480000D02*
X508000Y11670002D01*
X508000Y11670002D02*
X438011Y11739991D01*
X508000Y11480000D02*
X508000Y10160000D01*
X5598000Y11480000D02*
X5598000Y10170000D01*
X-2022000Y15775800D02*
X-2936500Y14861300D01*
X-2022000Y17780000D02*
X-2022000Y15775800D01*
X-2022000Y11480000D02*
X-2022000Y10170000D01*
X1788000Y11480000D02*
X1788000Y10170000D01*
X1788000Y10170000D02*
X1778000Y10160000D01*
X4318000Y11480000D02*
X4318000Y10160000D01*
X3048000Y19558000D02*
X3048000Y18790300D01*
X3048000Y18790300D02*
X3058000Y18780300D01*
X3058000Y17780000D02*
X3058000Y18730000D01*
X3058000Y18730000D02*
X3108001Y18780001D01*
X-12636000Y15760000D02*
X-12636000Y16574000D01*
X-12636000Y16574000D02*
X-10429700Y18780300D01*
X-10429700Y18780300D02*
X3058000Y18780300D01*
X3058000Y18780300D02*
X3058000Y17780000D01*
X-12636000Y15760000D02*
X-12486000Y15760000D01*
X-12486000Y15760000D02*
X-12192000Y16054000D01*
X4318000Y17018000D02*
X4318000Y17780000D01*
X3810000Y16510000D02*
X4318000Y17018000D01*
X-762000Y17780000D02*
X-762000Y16830000D01*
X-762000Y16830000D02*
X-508000Y16576000D01*
X17526000Y12954000D02*
X13650000Y16830000D01*
X13650000Y16830000D02*
X5598000Y16830000D01*
X17526000Y9144000D02*
X17526000Y12954000D01*
X14550000Y6168000D02*
X17526000Y9144000D01*
X14550000Y3100000D02*
X14550000Y6168000D01*
X5598000Y17780000D02*
X5598000Y16830000D01*
X14550000Y-3100000D02*
X14550000Y-3450000D01*
X14550000Y-3450000D02*
X18720000Y-7620000D01*
X18720000Y-7620000D02*
X19304000Y-7620000D01*
X14550000Y-3100000D02*
X14550000Y3100000D01*
M02*
